<svg width="200" height="200" viewBox="0 0 200 200" fill="none" xmlns="http://www.w3.org/2000/svg">
<path d="M150.645 35.9208C151.688 36.0717 152.426 37.0028 152.354 38.038L152.338 38.1865L151.999 40.531L160.258 37.2791C160.948 37.0074 161.727 37.1411 162.285 37.6155L162.41 37.731L166.749 42.1015C167.519 42.8774 167.518 44.1174 166.776 44.8922L166.653 45.0105L142.228 66.553C141.909 66.8338 141.526 66.995 141.134 67.04L103.321 104.851C103.289 104.945 103.253 105.06 103.216 105.193C103.043 105.814 102.967 106.435 103.031 106.948C103.214 108.425 104.67 109.126 109.465 108.19C114.012 107.306 118.318 110.575 118.57 115.189C118.733 118.172 117.116 120.987 114.484 122.345L114.235 122.468L106.831 125.969C103.048 127.769 100.216 131.136 99.0821 135.166L99.0075 135.443L98.6538 137.953C96.815 151.186 86.5583 161.628 73.4133 163.71L72.9973 163.773C64.6693 164.97 56.2595 162.644 49.766 157.463L49.3715 157.143L49.3127 157.118C49.1639 157.046 49.0221 156.956 48.8912 156.845L48.764 156.728L47.4658 155.432C47.4341 155.408 47.4028 155.383 47.3722 155.357L47.245 155.241L41.5727 149.568C34.8106 142.807 31.6482 133.284 33.011 123.811C34.9484 110.61 45.27 100.237 58.4062 98.2222L61.6564 97.7563C66.5494 97.0915 70.7441 93.9851 72.8103 89.5301L72.951 89.2172L73.1353 88.7871C74.0326 86.682 75.3464 84.7597 77.0016 83.1046C84.1417 75.9644 95.657 75.8774 102.903 82.8433L103.17 83.1045L104.496 84.431L132.282 56.645L133.344 48.9707C133.436 48.3102 133.85 47.7426 134.441 47.451L134.593 47.384L138.957 45.665L139.699 40.3223C139.85 39.2282 140.86 38.4642 141.954 38.6159C142.999 38.7607 143.742 39.6874 143.676 40.723L143.661 40.8716L143.228 43.984L147.713 42.218L148.379 37.614C148.537 36.5208 149.552 35.7628 150.645 35.9208ZM79.8299 85.9331C78.6397 87.1233 77.6811 88.4799 76.994 89.9543L76.8134 90.3592L76.623 90.8034C74.0993 96.6009 68.8002 100.689 62.5828 101.663L59.381 102.122C47.8011 103.735 38.6684 112.809 36.9694 124.386C35.8083 132.457 38.4324 140.57 44.084 146.417L44.4011 146.74L49.8248 152.163C49.9093 152.227 49.9924 152.3 50.0738 152.381C55.9241 158.232 64.2229 160.993 72.427 159.814C83.8745 158.162 92.8722 149.218 94.6346 137.793L94.6925 137.398L95.0645 134.764L95.1061 134.552C96.4279 129.332 99.9654 124.936 104.763 122.528L105.117 122.355L112.529 118.85C113.835 118.237 114.655 116.859 114.576 115.407C114.457 113.241 112.416 111.691 110.23 112.116C104.207 113.293 100.51 111.987 99.3754 108.797L95.9999 112.173C95.26 112.913 94.0845 112.952 93.2987 112.29L93.1715 112.174L86.377 105.38C85.637 104.64 85.5981 103.464 86.2601 102.678L86.377 102.551L101.668 87.26L100.341 85.933C94.6756 80.2668 85.4961 80.2668 79.8299 85.9331ZM67.5362 148.231C69.9762 148.231 71.9539 150.209 71.9539 152.649C71.9539 155.089 69.9759 157.066 67.5362 157.066C65.0964 157.066 63.1185 155.089 63.1185 152.649C63.1185 150.209 65.0961 148.231 67.5362 148.231ZM67.5362 152.231C67.3053 152.231 67.1185 152.418 67.1185 152.649C67.1185 152.88 67.3053 153.066 67.5362 153.066C67.7671 153.066 67.9539 152.88 67.9539 152.649C67.9539 152.418 67.7671 152.231 67.5362 152.231ZM78.6639 143.179C81.1036 143.179 83.0816 145.157 83.0816 147.596C83.0816 150.037 81.1039 152.014 78.6639 152.014C76.2238 152.014 74.2462 150.037 74.2462 147.596C74.2462 145.157 76.2241 143.179 78.6639 143.179ZM78.6639 147.179C78.433 147.179 78.2462 147.366 78.2462 147.596C78.2462 147.827 78.433 148.014 78.6639 148.014C78.8948 148.014 79.0816 147.827 79.0816 147.596C79.0816 147.366 78.8948 147.179 78.6639 147.179ZM50.1013 126.444L50.2285 126.561L66.2536 142.587C67.0347 143.368 67.0346 144.634 66.2536 145.416C65.5136 146.155 64.3381 146.194 63.5523 145.532L63.4251 145.415L47.4 129.389C46.619 128.608 46.619 127.342 47.4001 126.561C48.1401 125.821 49.3156 125.782 50.1013 126.444ZM63.0267 124.988L63.1539 125.105L73.4757 135.426C74.2568 136.207 74.2569 137.473 73.4758 138.254C72.7359 138.994 71.5605 139.033 70.7746 138.371L70.6474 138.255L60.3256 127.934C59.5445 127.153 59.5445 125.886 60.3255 125.105C61.0654 124.365 62.2409 124.326 63.0267 124.988ZM70.2176 117.828L70.3448 117.945L80.6356 128.235C81.4167 129.016 81.4168 130.282 80.6357 131.063C79.8958 131.803 78.7204 131.842 77.9345 131.18L77.8073 131.064L67.5165 120.774C66.7354 119.993 66.7354 118.726 67.5164 117.945C68.2563 117.205 69.4318 117.166 70.2176 117.828ZM77.4091 110.636L77.5363 110.753L87.8271 121.044C88.6081 121.825 88.6081 123.091 87.8271 123.872C87.0871 124.612 85.9116 124.651 85.1259 123.989L84.9987 123.872L74.7079 113.581C73.9268 112.8 73.9268 111.534 74.7079 110.753C75.4478 110.013 76.6233 109.974 77.4091 110.636ZM133.818 60.7663L90.6195 103.964L94.5845 107.93L137.784 64.7313L133.818 60.7663ZM160.498 41.4823L137.147 50.6763L136.202 57.493L141.005 62.297L162.416 43.4143L160.498 41.4823Z" fill="white"></path>
</svg>