<svg width="200" height="200" viewBox="0 0 200 200" fill="none" xmlns="http://www.w3.org/2000/svg">
<path d="M134.476 35.0403C141.96 33.5178 148.615 33.7708 154.186 35.1231C155.586 35.4627 156.663 35.8087 157.395 36.0926L157.571 36.1623L157.879 36.2929C158.54 36.5871 158.99 37.2147 159.056 37.9344C160.345 51.784 153.974 64.8696 142.651 76.7557C139.326 80.246 135.785 83.3958 132.228 86.171L131.398 86.8116L131.801 86.7396L132.361 86.6301L132.929 86.5115C133.479 86.3933 134.015 86.2686 134.525 86.1424L135.185 85.9743L135.842 85.7962C137.259 85.3893 138.614 86.6032 138.365 88.0563C137.17 95.0322 133.131 101.21 127.125 106.596C124.334 109.098 121.385 111.207 118.536 112.92L117.88 113.308L117.844 113.328L122.728 115.224C124.009 115.721 124.394 117.305 123.571 118.332L123.471 118.448L123.36 118.559C112.333 128.73 100.662 134.885 89.0605 137.849C84.9274 138.905 81.0727 139.479 77.5824 139.678C76.4997 139.74 75.5076 139.761 74.6129 139.752L74.4483 139.749C74.0628 140.981 73.6899 142.214 73.3294 143.448C71.9937 148.018 70.9218 152.281 70.0874 156.142L69.9122 156.963C69.6502 158.207 69.4306 159.328 69.2506 160.314L69.0439 161.493L68.9575 162.029C68.7944 163.121 67.7766 163.875 66.6842 163.712C65.6413 163.556 64.9074 162.622 64.9847 161.587L65.018 161.33L65.1871 160.316L65.3976 159.152L65.5773 158.211C65.7039 157.562 65.8439 156.871 65.998 156.139C66.8763 151.967 68.0292 147.324 69.4901 142.325C69.9031 140.912 70.332 139.5 70.7773 138.088L70.3122 137.237C59.306 116.783 57.9936 97.6975 63.775 80.5517C65.8278 74.4638 68.6542 69.0313 71.9243 64.3043C73.1021 62.6018 74.2675 61.0952 75.3798 59.7909L75.8001 59.3047C76.1365 58.921 76.4374 58.5911 76.6986 58.3153L76.8505 58.1563L77.1249 57.8771L77.2658 57.7436C78.8986 56.3104 81.3469 58.2142 80.362 60.1491L80.2929 60.2753C80.3087 60.2484 80.3178 60.2337 80.3223 60.2303L80.3262 60.2336L80.3095 60.397C80.2977 60.5512 80.2971 60.7467 80.3097 60.9767C80.3262 61.2779 80.3642 61.6217 80.4223 62.0016L80.4696 62.2932L80.5112 62.5276L80.7685 62.0668C83.2201 57.7424 86.6282 53.9166 90.7801 50.5617L91.3258 50.1268L91.8179 49.7447C95.1202 47.2113 98.6486 45.1194 102.178 43.4371C103.238 42.9317 104.235 42.4942 105.151 42.1225L105.998 41.7884L106.492 41.6035L106.956 41.4406C108.882 40.8019 110.425 43.1078 109.1 44.6451C108.146 45.7511 107.471 46.8127 107.022 47.8117L106.894 48.1095L106.816 48.3036L107.571 47.7319C116.227 41.245 124.83 37.222 133.23 35.309L133.876 35.166L134.476 35.0403ZM153.243 39.0102C148.219 37.7909 142.153 37.5603 135.274 38.96C125.735 40.9005 115.831 45.7789 105.779 54.2733C104.685 55.1976 103.002 54.7063 102.578 53.3385C102.553 53.2567 102.525 53.1532 102.496 53.023L102.436 52.7255L102.406 52.5493C102.2 51.2142 102.256 49.7601 102.65 48.2359L102.755 47.8534L102.843 47.5656L102.381 47.7992C100.134 48.9527 97.9032 50.2863 95.762 51.805L94.9634 52.3831L94.2526 52.9184C88.3972 57.4103 84.0987 62.7993 81.9677 69.1304C81.3792 70.8785 78.9696 70.948 78.2482 69.3145L78.1856 69.1564L78.0358 68.7157L77.73 67.7648C77.5688 67.2466 77.4096 66.707 77.2582 66.1572C77.1111 65.6234 76.9771 65.1003 76.8587 64.5926L76.8109 64.383L76.3062 65.0544L75.9438 65.5489L75.5796 66.0574L75.2139 66.58C72.1467 71.0137 69.4918 76.1165 67.5653 81.8298C62.366 97.2493 63.27 114.334 72.5203 132.812C76.3408 121.742 81.1877 110.798 87.1891 100.421C98.7472 80.4368 113.575 64.3514 132.088 53.6107C133.044 53.0564 134.268 53.3816 134.822 54.337C135.376 55.2924 135.051 56.5163 134.096 57.0706C116.24 67.4296 101.883 83.0045 90.6517 102.424C84.4932 113.072 79.5701 124.352 75.7448 135.749C76.0012 135.743 76.2709 135.735 76.5534 135.723L76.9865 135.704L77.3548 135.685C80.5947 135.5 84.1947 134.963 88.0703 133.973C97.9642 131.445 107.941 126.449 117.523 118.375L118.233 117.77L112.316 115.473C110.768 114.872 110.616 112.803 111.929 111.944L112.07 111.859L112.411 111.696L113.095 111.36C116.692 109.545 120.743 106.945 124.455 103.617C128.702 99.8098 131.808 95.628 133.436 91.1087L133.604 90.6232L133.662 90.4436L133.148 90.5518C132.736 90.6351 132.329 90.712 131.928 90.7817L131.332 90.8808L130.747 90.9685C127.791 91.386 125.628 91.3394 124.166 90.4692C122.925 89.7306 122.863 87.9784 123.998 87.1435L124.46 86.8432L125.221 86.3379L125.844 85.9118C126.804 85.2474 127.856 84.484 128.98 83.6258C132.654 80.8197 136.33 77.5922 139.755 73.9967C149.756 63.4983 155.553 52.1613 155.204 40.4275L155.183 39.8857L155.165 39.5506L154.96 39.4853C154.653 39.3885 154.324 39.292 153.973 39.1972L153.615 39.103L153.243 39.0102Z" fill="white"></path>
</svg>