<svg width="200" height="200" viewBox="0 0 200 200" fill="none" xmlns="http://www.w3.org/2000/svg">
<path fill-rule="evenodd" clip-rule="evenodd" d="M41.5 59.5C41.5 58.3954 42.3954 57.5 43.5 57.5C51.4916 57.5 55.5442 62.7997 58.9451 67.2473C58.993 67.3099 59.0408 67.3725 59.0885 67.4348C62.6576 72.1001 65.6043 75.8 71.5 75.8C77.3957 75.8 80.3424 72.1001 83.9115 67.4348C83.9592 67.3725 84.007 67.3099 84.0549 67.2473C87.4558 62.7997 91.5084 57.5 99.5 57.5C107.492 57.5 111.544 62.7997 114.945 67.2473C114.993 67.3099 115.041 67.3725 115.088 67.4348C118.658 72.1001 121.604 75.8 127.5 75.8C133.396 75.8 136.342 72.1001 139.912 67.4348L140.055 67.2473C143.456 62.7997 147.508 57.5 155.5 57.5C156.605 57.5 157.5 58.3954 157.5 59.5C157.5 60.6046 156.605 61.5 155.5 61.5C149.604 61.5 146.658 65.1999 143.088 69.8652L142.945 70.0527C139.544 74.5003 135.492 79.8 127.5 79.8C119.508 79.8 115.456 74.5003 112.055 70.0527C112.007 69.9901 111.959 69.9275 111.912 69.8652C108.342 65.1999 105.396 61.5 99.5 61.5C93.6043 61.5 90.6576 65.1999 87.0885 69.8652C87.0408 69.9275 86.993 69.9901 86.9451 70.0527C83.5442 74.5003 79.4916 79.8 71.5 79.8C63.5084 79.8 59.4558 74.5003 56.0549 70.0527C56.007 69.9901 55.9592 69.9275 55.9115 69.8652C52.3424 65.1999 49.3957 61.5 43.5 61.5C42.3954 61.5 41.5 60.6046 41.5 59.5ZM41.5 90.5C41.5 89.3954 42.3954 88.5 43.5 88.5C51.4916 88.5 55.5442 93.7997 58.9451 98.2473C58.993 98.31 59.0408 98.3725 59.0885 98.4348C62.6576 103.1 65.6043 106.8 71.5 106.8C77.3957 106.8 80.3424 103.1 83.9115 98.4348C83.9592 98.3725 84.007 98.3099 84.0549 98.2473C87.4559 93.7997 91.5084 88.5 99.5 88.5C107.492 88.5 111.544 93.7997 114.945 98.2473C114.993 98.31 115.041 98.3725 115.088 98.4348C118.658 103.1 121.604 106.8 127.5 106.8C133.396 106.8 136.342 103.1 139.912 98.4348L140.055 98.2473C143.456 93.7997 147.508 88.5 155.5 88.5C156.605 88.5 157.5 89.3954 157.5 90.5C157.5 91.6046 156.605 92.5 155.5 92.5C149.604 92.5 146.658 96.1999 143.088 100.865L142.945 101.053C139.544 105.5 135.492 110.8 127.5 110.8C119.508 110.8 115.456 105.5 112.055 101.053C112.007 100.99 111.959 100.928 111.912 100.865C108.342 96.1999 105.396 92.5 99.5 92.5C93.6043 92.5 90.6576 96.1999 87.0885 100.865C87.0408 100.928 86.993 100.99 86.9451 101.053C83.5441 105.5 79.4916 110.8 71.5 110.8C63.5084 110.8 59.4558 105.5 56.0549 101.053C56.007 100.99 55.9592 100.928 55.9115 100.865C52.3424 96.1999 49.3957 92.5 43.5 92.5C42.3954 92.5 41.5 91.6046 41.5 90.5ZM41.5 121.5C41.5 120.395 42.3954 119.5 43.5 119.5C51.4916 119.5 55.5442 124.8 58.9451 129.247C58.993 129.31 59.0408 129.372 59.0885 129.435C62.6576 134.1 65.6043 137.8 71.5 137.8C77.3957 137.8 80.3424 134.1 83.9115 129.435C83.9592 129.372 84.007 129.31 84.0549 129.247C87.4559 124.8 91.5084 119.5 99.5 119.5C107.492 119.5 111.544 124.8 114.945 129.247C114.993 129.31 115.041 129.372 115.088 129.435C118.658 134.1 121.604 137.8 127.5 137.8C133.396 137.8 136.342 134.1 139.912 129.435L140.055 129.247C143.456 124.8 147.508 119.5 155.5 119.5C156.605 119.5 157.5 120.395 157.5 121.5C157.5 122.605 156.605 123.5 155.5 123.5C149.604 123.5 146.658 127.2 143.088 131.865L142.945 132.053C139.544 136.5 135.492 141.8 127.5 141.8C119.508 141.8 115.456 136.5 112.055 132.053C112.007 131.99 111.959 131.928 111.912 131.865C108.342 127.2 105.396 123.5 99.5 123.5C93.6043 123.5 90.6576 127.2 87.0885 131.865C87.0408 131.928 86.993 131.99 86.9451 132.053C83.5441 136.5 79.4916 141.8 71.5 141.8C63.5084 141.8 59.4558 136.5 56.0549 132.053C56.007 131.99 55.9592 131.928 55.9115 131.865C52.3424 127.2 49.3957 123.5 43.5 123.5C42.3954 123.5 41.5 122.605 41.5 121.5Z" fill="white"></path>
</svg>