<svg width="200" height="200" viewBox="0 0 200 200" fill="none" xmlns="http://www.w3.org/2000/svg">
<path fill-rule="evenodd" clip-rule="evenodd" d="M111.475 38.4667C110.861 48.9846 105.989 61.3338 94.0079 71.3612C95.7423 77.5823 97.7194 84.1791 99.7822 90.8629C111.275 87.7686 120.84 88.8522 128.119 92.7184C135.795 96.7961 140.696 103.85 142.594 111.774C146.292 127.217 138.627 146.021 118.119 153.523C118.232 154.214 118.324 154.864 118.394 155.471C118.463 156.063 118.564 156.752 118.676 157.518C119.113 160.51 119.722 164.673 119.253 168.771C118.64 174.118 116.196 179.628 109.456 183.198C109.416 183.219 109.376 183.239 109.334 183.257C101.906 186.568 93.7204 184.839 88.4938 180.786C85.868 178.75 83.866 176.031 83.1719 172.913C82.4639 169.732 83.1699 166.358 85.5729 163.241C86.2473 162.366 87.5032 162.204 88.378 162.878C89.2528 163.553 89.4152 164.809 88.7408 165.683C87.0085 167.93 86.6448 170.105 87.0763 172.044C87.5218 174.045 88.8688 176.015 90.9451 177.625C95.1084 180.854 101.708 182.247 107.644 179.631C112.929 176.808 114.784 172.635 115.279 168.315C115.682 164.797 115.183 161.351 114.753 158.381C114.629 157.522 114.51 156.702 114.421 155.932L114.421 155.931C114.377 155.551 114.324 155.152 114.261 154.735C103.083 157.61 90.1252 155.447 79.3858 149.873C67.9408 143.931 58.6198 133.896 56.7894 121.347C55.0202 109.288 61.0732 98.2174 68.5279 89.3225C75.4936 81.0112 83.9709 74.2623 89.3295 69.9963L89.4549 69.8964C88.919 67.9294 88.4099 66.0042 87.933 64.1307C83.9229 48.363 83.8385 35.2718 86.4218 26.6089C87.7099 22.2894 89.729 18.8521 92.488 16.8537C95.3615 14.7725 98.799 14.4296 102.327 15.8968C105.447 17.1956 107.865 20.3456 109.413 24.2061C110.986 28.1286 111.789 33.0756 111.475 38.4667ZM91.8094 63.1443C87.9002 47.773 87.9525 35.4731 90.255 27.7519C91.4098 23.8794 93.0629 21.3763 94.8344 20.0933C96.4914 18.8931 98.4426 18.6135 100.791 19.5901C102.508 20.3049 104.349 22.3231 105.701 25.6947C107.028 29.0045 107.766 33.3543 107.481 38.2339C106.954 47.2828 102.917 58.0281 92.8382 67.0821C92.481 65.7467 92.1375 64.4331 91.8094 63.1443ZM113.506 150.798C103.414 153.472 91.3631 151.583 81.2287 146.322C70.5121 140.759 62.3338 131.645 60.7475 120.77L60.7472 120.768C59.2281 110.418 64.3834 100.495 71.5936 91.8919C77.7925 84.4954 85.267 78.3603 90.6093 74.092C92.2389 79.8608 94.0572 85.9167 95.9428 92.0327C79.9098 97.5225 73.3586 108.008 73.7986 118.148C74.2452 128.441 81.9654 137.776 92.7306 139.599C93.8196 139.783 94.852 139.05 95.0364 137.961C95.2208 136.872 94.4874 135.839 93.3983 135.655C84.5567 134.158 78.1625 126.448 77.7948 117.975C77.4518 110.069 82.4159 100.92 97.1271 95.8547C98.5953 100.572 100.089 105.297 101.552 109.926L101.553 109.931C102.247 112.125 102.933 114.297 103.607 116.436C107.945 130.213 111.735 142.572 113.506 150.798ZM138.704 112.706C141.898 126.043 135.473 142.603 117.346 149.542C115.465 140.953 111.61 128.445 107.346 114.924C106.695 112.859 106.033 110.767 105.366 108.658L105.365 108.655C103.908 104.048 102.424 99.3595 100.968 94.6861C111.618 91.8486 120.062 92.968 126.242 96.251C132.803 99.7361 137.045 105.779 138.704 112.706Z" fill="white"></path>
</svg>