<svg width="200" height="200" viewBox="0 0 200 200" fill="none" xmlns="http://www.w3.org/2000/svg">
<path d="M71.3589 51.9924C72.9922 38.1088 87.7395 30.4106 97.871 40.8236C103.651 46.6998 106.922 54.208 108.24 63.4261L108.357 64.2705C108.472 65.1246 108.537 65.9026 108.573 66.8799L108.589 67.4573L108.882 66.9976C113.102 60.4465 118.815 55.3732 125.995 51.716L126.565 51.4302C132.97 48.2906 138.628 48.0173 143.995 51.424C149.388 54.7516 151.888 60.9853 150.502 67.34C149.451 72.3091 147.112 76.801 143.507 81.2846L143.101 81.7827C140.137 85.452 136.761 88.5273 132.965 90.9997L132.673 91.1863L132.821 91.1917C133.109 91.2024 133.387 91.2161 133.662 91.2331L134.074 91.2612L134.49 91.2945L134.956 91.3372C144.477 92.3453 152.423 95.5757 158.816 101.47C168.113 110.22 163.759 124.958 151.297 127.875C143.219 129.746 134.963 128.63 126.272 124.971C125.538 124.663 124.817 124.325 124.05 123.932L123.761 123.782L123.91 124.069C127.498 131.145 129.026 138.849 128.483 147.074L128.438 147.692C127.93 153.786 125.819 158.283 121.305 161.222C110.263 168.123 99.7057 160.022 94.0844 146.059C92.4737 141.971 91.5051 137.764 91.1541 133.389L91.1082 132.76C86.9088 139.255 81.1085 144.368 73.8153 148.123L73.2513 148.409C66.4392 151.871 58.9353 151.296 54.0871 146.794C49.6475 142.688 48.2713 137.273 49.9184 131.39C52.51 122.079 58.4143 114.638 67.2083 108.826L67.5432 108.606L67.468 108.604C66.9386 108.582 66.4455 108.547 65.9375 108.495L65.2115 108.412C55.3147 107.248 47.5015 104.118 41.2687 98.177C36.6718 93.8159 34.967 88.5249 36.614 82.7061C38.1732 76.9148 42.334 73.2592 48.4261 71.9705C57.7889 69.9641 66.7741 71.2801 75.5157 75.6767L76.0442 75.9463L75.8958 75.6597C72.2821 68.5767 70.7514 60.8935 71.306 52.6833L71.3589 51.9924ZM95.0117 43.6208C91.2028 39.706 86.8053 39.0035 82.7611 41.1146C78.9463 43.106 76.0513 47.3529 75.3778 52.1026L75.3352 52.4313L75.2949 52.9838C74.6825 62.1404 76.8956 70.5117 81.9596 78.1001L82.2939 78.5939L82.3602 78.6971C83.1321 79.9838 82.8118 81.556 81.4717 82.2552C80.5921 82.7141 79.4806 82.6417 78.6521 82.1009C69.0926 75.8621 59.4394 73.7013 49.2591 75.8828C44.5805 76.8725 41.6288 79.4657 40.4696 83.7707C39.2403 88.1142 40.4585 91.8946 44.0251 95.2783C49.4428 100.442 56.2677 103.243 65.0887 104.368L66.0588 104.485C67.7438 104.673 69.2013 104.664 72.9452 104.526C75.5871 104.526 76.5024 108.004 74.2375 109.363L73.622 109.707L72.1684 110.487L71.649 110.771C71.1685 111.039 70.7928 111.265 70.4124 111.518C61.7996 116.952 56.1773 123.821 53.7711 132.465C52.5172 136.944 53.4972 140.8 56.8061 143.861C60.3486 147.15 66.0418 147.586 71.4508 144.837C80.2966 140.414 86.7206 133.943 90.5882 125.383L90.7587 124.971C90.8943 124.655 91.0159 124.406 91.137 124.203C91.3085 123.914 91.4862 123.684 91.7754 123.465C92.594 122.842 93.8203 122.849 94.5956 123.759C94.9282 124.149 95.0406 124.498 95.1025 124.92C95.1284 125.097 95.1395 125.277 95.1419 125.482L95.1395 125.791C95.1369 125.903 95.1323 126.023 95.1259 126.155L95.1012 126.587C94.6921 132.985 95.5677 138.911 97.8005 144.579C102.622 156.555 110.973 162.963 119.154 157.85C122.457 155.7 124.038 152.332 124.451 147.37C125.219 137.576 122.809 128.649 117.245 120.726L116.983 120.369C116.827 120.151 116.707 119.969 116.61 119.803C116.484 119.588 116.389 119.388 116.32 119.15C116.118 118.459 116.171 117.704 116.862 117.041C117.483 116.445 118.127 116.382 118.766 116.514C118.987 116.56 119.182 116.629 119.395 116.724C119.605 116.817 119.842 116.941 120.15 117.115L120.811 117.495L123.347 118.98L123.543 119.093C125.254 120.079 126.534 120.743 127.821 121.283C135.791 124.639 143.212 125.642 150.389 123.979C159.794 121.777 163.006 110.906 156.09 104.397C150.521 99.2626 143.579 96.3738 135.157 95.3842L134.533 95.3148L134.151 95.2802C132.766 95.162 131.515 95.1421 129.014 95.1763L126.53 95.2144C125.056 95.2331 124.37 95.1428 123.675 94.3625C123.09 93.705 122.98 92.7697 123.384 91.9965C123.596 91.589 123.876 91.3268 124.215 91.1063C124.502 90.9199 124.848 90.7628 125.286 90.6068L125.401 90.5663L125.926 90.33C131.213 87.8859 135.744 84.3726 139.579 79.7693L140.002 79.2533C143.47 75.0504 145.645 70.9717 146.591 66.4997C147.625 61.7608 145.815 57.2467 141.874 54.8147C137.813 52.2378 133.589 52.4418 128.331 55.0194C120.655 58.8087 114.827 64.2815 110.834 71.5205L110.319 72.536C110.28 72.6114 110.241 72.686 110.199 72.7644C109.945 73.2432 109.7 73.6716 109.46 74.0551C108.199 76.1571 105.136 75.4763 104.684 73.2183L104.652 73.0582L104.627 72.2003C104.621 71.9103 104.617 71.6079 104.615 71.2486L104.607 68.5618C104.592 66.9778 104.545 66.0163 104.42 65.0137L104.363 64.5888C103.207 55.8698 100.261 48.9579 95.0117 43.6208ZM100.345 85.3261C108.346 85.3261 114.945 91.8173 114.945 99.7261C114.945 108.113 108.467 114.626 100.145 114.626C92.1357 114.626 85.4289 107.919 85.5454 99.998C85.6609 91.7928 92.163 85.3261 100.345 85.3261ZM100.345 89.3261C94.3579 89.3261 89.6299 94.0285 89.545 100.056C89.4615 105.733 94.3547 110.626 100.145 110.626C106.253 110.626 110.945 105.909 110.945 99.7261C110.945 94.0414 106.151 89.3261 100.345 89.3261Z" fill="white"></path>
</svg>