<svg width="200" height="200" viewBox="0 0 200 200" fill="none" xmlns="http://www.w3.org/2000/svg">
<path fill-rule="evenodd" clip-rule="evenodd" d="M99.9818 97C98.2387 97 97 98.4636 97 100.018C97 101.619 98.2468 103 99.9818 103C101.62 103 103 101.716 103 100.018C103 98.2855 101.585 97 99.9818 97Z" fill="white"></path>
<path fill-rule="evenodd" clip-rule="evenodd" d="M81 100C81 89.5161 89.5161 81 100 81C110.482 81 119 89.4874 119 100C119 110.484 110.484 119 100 119C89.5161 119 81 110.484 81 100ZM100 85C91.7253 85 85 91.7253 85 100C85 108.275 91.7253 115 100 115C108.275 115 115 108.275 115 100C115 91.7007 108.277 85 100 85Z" fill="white"></path>
<path d="M111.405 44.0413C110.323 43.8178 109.265 44.5134 109.041 45.5951C108.818 46.6769 109.513 47.735 110.595 47.9585C130.722 52.1179 146.627 68.0834 151.046 88.4245C151.28 89.5039 152.345 90.1888 153.424 89.9543C154.504 89.7198 155.189 88.6547 154.954 87.5753C150.208 65.7249 133.116 48.5282 111.405 44.0413Z" fill="white"></path>
<path d="M107.042 58.5938C107.266 57.5123 108.324 56.8173 109.406 57.0416C126.116 60.5064 139.294 73.7514 142.954 90.5747C143.189 91.6541 142.504 92.7194 141.425 92.9542C140.346 93.189 139.28 92.5044 139.046 91.4251C135.714 76.112 123.723 64.0953 108.594 60.9583C107.512 60.734 106.817 59.6754 107.042 58.5938Z" fill="white"></path>
<path d="M106.407 69.0417C105.325 68.817 104.266 69.5115 104.042 70.593C103.817 71.6745 104.512 72.7333 105.593 72.9581C116.249 75.1726 124.7 83.6255 127.045 94.4244C127.28 95.5038 128.345 96.1888 129.424 95.9544C130.504 95.7199 131.189 94.6549 130.954 93.5755C128.28 81.2624 118.64 71.5839 106.407 69.0417Z" fill="white"></path>
<path d="M48.9604 109.604C48.7418 108.521 47.6869 107.821 46.6042 108.039C45.5214 108.258 44.8209 109.313 45.0394 110.396C49.5182 132.584 66.6945 150.088 88.5657 154.952C89.6439 155.192 90.7124 154.512 90.9522 153.434C91.192 152.356 90.5123 151.287 89.4341 151.048C69.1138 146.528 53.1278 130.25 48.9604 109.604Z" fill="white"></path>
<path d="M59.5938 106.042C60.6754 105.817 61.734 106.512 61.9583 107.594C65.0953 122.723 77.112 134.714 92.4251 138.046C93.5044 138.28 94.189 139.346 93.9542 140.425C93.7194 141.504 92.6541 142.189 91.5747 141.954C74.7514 138.294 61.5064 125.116 58.0416 108.406C57.8173 107.324 58.5123 106.266 59.5938 106.042Z" fill="white"></path>
<path d="M73.9581 105.593C73.7333 104.512 72.6745 103.817 71.593 104.042C70.5115 104.266 69.817 105.325 70.0417 106.407C72.4805 118.142 81.7649 127.389 93.5755 129.954C94.6549 130.189 95.7199 129.504 95.9544 128.424C96.1888 127.345 95.5038 126.28 94.4244 126.045C84.1279 123.809 76.0692 115.752 73.9581 105.593Z" fill="white"></path>
<path fill-rule="evenodd" clip-rule="evenodd" d="M32 100C32 62.4446 62.4446 32 100 32C137.555 32 168 62.4446 168 100C168 137.555 137.555 168 100 168C62.4446 168 32 137.555 32 100ZM100 36C64.6538 36 36 64.6538 36 100C36 135.346 64.6538 164 100 164C135.346 164 164 135.346 164 100C164 64.6538 135.346 36 100 36Z" fill="white"></path>
</svg>