<svg width="200" height="200" viewBox="0 0 200 200" fill="none" xmlns="http://www.w3.org/2000/svg">
<path d="M115.371 29.9141C113.541 29.9141 112.057 31.3979 112.057 33.2283C112.057 35.0588 113.541 36.5426 115.371 36.5426C117.202 36.5426 118.686 35.0588 118.686 33.2283C118.686 31.3979 117.202 29.9141 115.371 29.9141Z" fill="white"></path>
<path d="M115.371 43.3145C113.541 43.3145 112.057 44.7983 112.057 46.6287C112.057 48.4592 113.541 49.943 115.371 49.943C117.202 49.943 118.686 48.4592 118.686 46.6287C118.686 44.7983 117.202 43.3145 115.371 43.3145Z" fill="white"></path>
<path d="M115.371 56.6289C113.541 56.6289 112.057 58.1127 112.057 59.9432C112.057 61.7736 113.541 63.2575 115.371 63.2575C117.202 63.2575 118.686 61.7736 118.686 59.9432C118.686 58.1128 117.202 56.6289 115.371 56.6289Z" fill="white"></path>
<path d="M53.8284 70C51.998 70 50.5142 71.4838 50.5142 73.3143C50.5142 75.1447 51.998 76.6286 53.8284 76.6286C55.6589 76.6286 57.1427 75.1447 57.1427 73.3143C57.1427 71.4839 55.6589 70 53.8284 70Z" fill="white"></path>
<path d="M53.8284 83.3145C51.998 83.3145 50.5142 84.7983 50.5142 86.6287C50.5142 88.4592 51.998 89.943 53.8284 89.943C55.6589 89.943 57.1427 88.4592 57.1427 86.6287C57.1427 84.7983 55.6589 83.3145 53.8284 83.3145Z" fill="white"></path>
<path d="M53.8284 96.6855C51.998 96.6855 50.5142 98.1694 50.5142 99.9998C50.5142 101.83 51.998 103.314 53.8284 103.314C55.6589 103.314 57.1427 101.83 57.1427 99.9998C57.1427 98.1694 55.6589 96.6855 53.8284 96.6855Z" fill="white"></path>
<path d="M53.8284 110.058C51.998 110.058 50.5142 111.541 50.5142 113.372C50.5142 115.202 51.998 116.686 53.8284 116.686C55.6589 116.686 57.1427 115.202 57.1427 113.372C57.1427 111.541 55.6589 110.058 53.8284 110.058Z" fill="white"></path>
<path d="M38.4285 123.371C36.5981 123.371 35.1143 124.855 35.1143 126.685C35.1143 128.516 36.5981 130 38.4285 130C40.259 130 41.7428 128.516 41.7428 126.685C41.7428 124.855 40.259 123.371 38.4285 123.371Z" fill="white"></path>
<path d="M38.4285 136.771C36.5981 136.771 35.1143 138.255 35.1143 140.086C35.1143 141.916 36.5981 143.4 38.4285 143.4C40.259 143.4 41.7428 141.916 41.7428 140.086C41.7428 138.255 40.259 136.771 38.4285 136.771Z" fill="white"></path>
<path d="M38.4285 150.086C36.5981 150.086 35.1143 151.57 35.1143 153.4C35.1143 155.231 36.5981 156.715 38.4285 156.715C40.259 156.715 41.7428 155.231 41.7428 153.4C41.7428 151.57 40.259 150.086 38.4285 150.086Z" fill="white"></path>
<path d="M38.4285 163.457C36.5981 163.457 35.1143 164.941 35.1143 166.771C35.1143 168.602 36.5981 170.086 38.4285 170.086C40.259 170.086 41.7428 168.602 41.7428 166.771C41.7428 164.941 40.259 163.457 38.4285 163.457Z" fill="white"></path>
<path d="M53.8284 163.457C51.998 163.457 50.5142 164.941 50.5142 166.771C50.5142 168.602 51.998 170.086 53.8284 170.086C55.6589 170.086 57.1427 168.602 57.1427 166.771C57.1427 164.941 55.6589 163.457 53.8284 163.457Z" fill="white"></path>
<path d="M69.2 163.457C67.3696 163.457 65.8857 164.941 65.8857 166.771C65.8857 168.602 67.3696 170.086 69.2 170.086C71.0305 170.086 72.5143 168.602 72.5143 166.771C72.5143 164.941 71.0304 163.457 69.2 163.457Z" fill="white"></path>
<path d="M84.5999 163.457C82.7695 163.457 81.2856 164.941 81.2856 166.771C81.2856 168.602 82.7695 170.086 84.5999 170.086C86.4304 170.086 87.9142 168.602 87.9142 166.771C87.9142 164.941 86.4304 163.457 84.5999 163.457Z" fill="white"></path>
<path d="M100 163.457C98.1696 163.457 96.6858 164.941 96.6858 166.771C96.6858 168.602 98.1696 170.086 100 170.086C101.831 170.086 103.314 168.602 103.314 166.771C103.314 164.941 101.831 163.457 100 163.457Z" fill="white"></path>
<path d="M115.371 163.457C113.541 163.457 112.057 164.941 112.057 166.771C112.057 168.602 113.541 170.086 115.371 170.086C117.202 170.086 118.686 168.602 118.686 166.771C118.686 164.941 117.202 163.457 115.371 163.457Z" fill="white"></path>
<path d="M130.771 163.457C128.941 163.457 127.457 164.941 127.457 166.771C127.457 168.602 128.941 170.086 130.771 170.086C132.602 170.086 134.086 168.602 134.086 166.771C134.086 164.941 132.602 163.457 130.771 163.457Z" fill="white"></path>
<path d="M146.143 163.457C144.312 163.457 142.829 164.941 142.829 166.771C142.829 168.602 144.312 170.086 146.143 170.086C147.973 170.086 149.457 168.602 149.457 166.771C149.457 164.941 147.973 163.457 146.143 163.457Z" fill="white"></path>
<path d="M161.543 163.457C159.712 163.457 158.229 164.941 158.229 166.771C158.229 168.602 159.712 170.086 161.543 170.086C163.373 170.086 164.857 168.602 164.857 166.771C164.857 164.941 163.373 163.457 161.543 163.457Z" fill="white"></path>
<path d="M53.8284 150.086C51.998 150.086 50.5142 151.57 50.5142 153.4C50.5142 155.231 51.998 156.715 53.8284 156.715C55.6589 156.715 57.1427 155.231 57.1427 153.4C57.1427 151.57 55.6589 150.086 53.8284 150.086Z" fill="white"></path>
<path d="M69.2 150.086C67.3696 150.086 65.8857 151.57 65.8857 153.4C65.8857 155.231 67.3696 156.715 69.2 156.715C71.0305 156.715 72.5143 155.231 72.5143 153.4C72.5143 151.57 71.0304 150.086 69.2 150.086Z" fill="white"></path>
<path d="M84.5999 150.086C82.7695 150.086 81.2856 151.57 81.2856 153.4C81.2856 155.231 82.7695 156.715 84.5999 156.715C86.4304 156.715 87.9142 155.231 87.9142 153.4C87.9142 151.57 86.4304 150.086 84.5999 150.086Z" fill="white"></path>
<path d="M100 150.086C98.1696 150.086 96.6858 151.57 96.6858 153.4C96.6858 155.231 98.1696 156.715 100 156.715C101.831 156.715 103.314 155.231 103.314 153.4C103.314 151.57 101.831 150.086 100 150.086Z" fill="white"></path>
<path d="M115.371 150.086C113.541 150.086 112.057 151.57 112.057 153.4C112.057 155.231 113.541 156.715 115.371 156.715C117.202 156.715 118.686 155.231 118.686 153.4C118.686 151.57 117.202 150.086 115.371 150.086Z" fill="white"></path>
<path d="M130.771 150.086C128.941 150.086 127.457 151.57 127.457 153.4C127.457 155.231 128.941 156.715 130.771 156.715C132.602 156.715 134.086 155.231 134.086 153.4C134.086 151.57 132.602 150.086 130.771 150.086Z" fill="white"></path>
<path d="M146.143 150.086C144.312 150.086 142.829 151.57 142.829 153.4C142.829 155.231 144.312 156.715 146.143 156.715C147.973 156.715 149.457 155.231 149.457 153.4C149.457 151.57 147.973 150.086 146.143 150.086Z" fill="white"></path>
<path d="M161.543 150.086C159.712 150.086 158.229 151.57 158.229 153.4C158.229 155.231 159.712 156.715 161.543 156.715C163.373 156.715 164.857 155.231 164.857 153.4C164.857 151.57 163.373 150.086 161.543 150.086Z" fill="white"></path>
<path d="M53.8284 136.771C51.998 136.771 50.5142 138.255 50.5142 140.086C50.5142 141.916 51.998 143.4 53.8284 143.4C55.6589 143.4 57.1427 141.916 57.1427 140.086C57.1427 138.255 55.6589 136.771 53.8284 136.771Z" fill="white"></path>
<path d="M84.5999 136.771C82.7695 136.771 81.2856 138.255 81.2856 140.086C81.2856 141.916 82.7695 143.4 84.5999 143.4C86.4304 143.4 87.9142 141.916 87.9142 140.086C87.9142 138.255 86.4304 136.771 84.5999 136.771Z" fill="white"></path>
<path d="M100 136.771C98.1696 136.771 96.6858 138.255 96.6858 140.086C96.6858 141.916 98.1696 143.4 100 143.4C101.831 143.4 103.314 141.916 103.314 140.086C103.314 138.255 101.831 136.771 100 136.771Z" fill="white"></path>
<path d="M115.371 136.771C113.541 136.771 112.057 138.255 112.057 140.086C112.057 141.916 113.541 143.4 115.371 143.4C117.202 143.4 118.686 141.916 118.686 140.086C118.686 138.255 117.202 136.771 115.371 136.771Z" fill="white"></path>
<path d="M130.771 136.771C128.941 136.771 127.457 138.255 127.457 140.086C127.457 141.916 128.941 143.4 130.771 143.4C132.602 143.4 134.086 141.916 134.086 140.086C134.086 138.255 132.602 136.771 130.771 136.771Z" fill="white"></path>
<path d="M146.143 136.771C144.312 136.771 142.829 138.255 142.829 140.086C142.829 141.916 144.312 143.4 146.143 143.4C147.973 143.4 149.457 141.916 149.457 140.086C149.457 138.255 147.973 136.771 146.143 136.771Z" fill="white"></path>
<path d="M161.543 136.771C159.712 136.771 158.229 138.255 158.229 140.086C158.229 141.916 159.712 143.4 161.543 143.4C163.373 143.4 164.857 141.916 164.857 140.086C164.857 138.255 163.373 136.771 161.543 136.771Z" fill="white"></path>
<path d="M53.8284 123.371C51.998 123.371 50.5142 124.855 50.5142 126.685C50.5142 128.516 51.998 130 53.8284 130C55.6589 130 57.1427 128.516 57.1427 126.685C57.1427 124.855 55.6589 123.371 53.8284 123.371Z" fill="white"></path>
<path d="M84.5999 123.371C82.7695 123.371 81.2856 124.855 81.2856 126.685C81.2856 128.516 82.7695 130 84.5999 130C86.4304 130 87.9142 128.516 87.9142 126.685C87.9142 124.855 86.4304 123.371 84.5999 123.371Z" fill="white"></path>
<path d="M100 123.371C98.1696 123.371 96.6858 124.855 96.6858 126.685C96.6858 128.516 98.1696 130 100 130C101.831 130 103.314 128.516 103.314 126.685C103.314 124.855 101.831 123.371 100 123.371Z" fill="white"></path>
<path d="M115.371 123.371C113.541 123.371 112.057 124.855 112.057 126.685C112.057 128.516 113.541 130 115.371 130C117.202 130 118.686 128.516 118.686 126.685C118.686 124.855 117.202 123.371 115.371 123.371Z" fill="white"></path>
<path d="M146.143 123.371C144.312 123.371 142.829 124.855 142.829 126.685C142.829 128.516 144.312 130 146.143 130C147.973 130 149.457 128.516 149.457 126.685C149.457 124.855 147.973 123.371 146.143 123.371Z" fill="white"></path>
<path d="M161.543 123.371C159.712 123.371 158.229 124.855 158.229 126.685C158.229 128.516 159.712 130 161.543 130C163.373 130 164.857 128.516 164.857 126.685C164.857 124.855 163.373 123.371 161.543 123.371Z" fill="white"></path>
<path d="M84.5999 110.058C82.7695 110.058 81.2856 111.541 81.2856 113.372C81.2856 115.202 82.7695 116.686 84.5999 116.686C86.4304 116.686 87.9142 115.202 87.9142 113.372C87.9142 111.541 86.4304 110.058 84.5999 110.058Z" fill="white"></path>
<path d="M100 110.058C98.1696 110.058 96.6858 111.541 96.6858 113.372C96.6858 115.202 98.1696 116.686 100 116.686C101.831 116.686 103.314 115.202 103.314 113.372C103.314 111.541 101.831 110.058 100 110.058Z" fill="white"></path>
<path d="M115.371 110.058C113.541 110.058 112.057 111.541 112.057 113.372C112.057 115.202 113.541 116.686 115.371 116.686C117.202 116.686 118.686 115.202 118.686 113.372C118.686 111.541 117.202 110.058 115.371 110.058Z" fill="white"></path>
<path d="M146.143 110.058C144.312 110.058 142.829 111.541 142.829 113.372C142.829 115.202 144.312 116.686 146.143 116.686C147.973 116.686 149.457 115.202 149.457 113.372C149.457 111.541 147.973 110.058 146.143 110.058Z" fill="white"></path>
<path d="M161.543 110.058C159.712 110.058 158.229 111.541 158.229 113.372C158.229 115.202 159.712 116.686 161.543 116.686C163.373 116.686 164.857 115.202 164.857 113.372C164.857 111.541 163.373 110.058 161.543 110.058Z" fill="white"></path>
<path d="M84.5999 96.6855C82.7695 96.6855 81.2856 98.1694 81.2856 99.9998C81.2856 101.83 82.7695 103.314 84.5999 103.314C86.4304 103.314 87.9142 101.83 87.9142 99.9998C87.9142 98.1694 86.4304 96.6855 84.5999 96.6855Z" fill="white"></path>
<path d="M100 96.6855C98.1696 96.6855 96.6858 98.1694 96.6858 99.9998C96.6858 101.83 98.1696 103.314 100 103.314C101.831 103.314 103.314 101.83 103.314 99.9998C103.314 98.1694 101.831 96.6855 100 96.6855Z" fill="white"></path>
<path d="M115.371 96.6855C113.541 96.6855 112.057 98.1694 112.057 99.9998C112.057 101.83 113.541 103.314 115.371 103.314C117.202 103.314 118.686 101.83 118.686 99.9998C118.686 98.1694 117.202 96.6855 115.371 96.6855Z" fill="white"></path>
<path d="M161.543 96.6855C159.712 96.6855 158.229 98.1694 158.229 99.9998C158.229 101.83 159.712 103.314 161.543 103.314C163.373 103.314 164.857 101.83 164.857 99.9998C164.857 98.1694 163.373 96.6855 161.543 96.6855Z" fill="white"></path>
<path d="M84.5999 83.3145C82.7695 83.3145 81.2856 84.7983 81.2856 86.6287C81.2856 88.4592 82.7695 89.943 84.5999 89.943C86.4304 89.943 87.9142 88.4592 87.9142 86.6287C87.9142 84.7983 86.4304 83.3145 84.5999 83.3145Z" fill="white"></path>
<path d="M115.371 83.3145C113.541 83.3145 112.057 84.7983 112.057 86.6287C112.057 88.4592 113.541 89.943 115.371 89.943C117.202 89.943 118.686 88.4592 118.686 86.6287C118.686 84.7983 117.202 83.3145 115.371 83.3145Z" fill="white"></path>
<path d="M161.543 83.3145C159.712 83.3145 158.229 84.7983 158.229 86.6287C158.229 88.4592 159.712 89.943 161.543 89.943C163.373 89.943 164.857 88.4592 164.857 86.6287C164.857 84.7983 163.373 83.3145 161.543 83.3145Z" fill="white"></path>
<path d="M115.371 70C113.541 70 112.057 71.4838 112.057 73.3143C112.057 75.1447 113.541 76.6286 115.371 76.6286C117.202 76.6286 118.686 75.1447 118.686 73.3143C118.686 71.4839 117.202 70 115.371 70Z" fill="white"></path>
<path d="M161.543 70C159.712 70 158.229 71.4839 158.229 73.3143C158.229 75.1447 159.712 76.6286 161.543 76.6286C163.373 76.6286 164.857 75.1447 164.857 73.3143C164.857 71.4839 163.373 70 161.543 70Z" fill="white"></path>
</svg>