<svg width="200" height="200" viewBox="0 0 200 200" fill="none" xmlns="http://www.w3.org/2000/svg">
<path fill-rule="evenodd" clip-rule="evenodd" d="M99.9998 46.1973C70.2855 46.1973 46.1973 70.2855 46.1973 99.9998C46.1973 129.714 70.2855 153.802 99.9998 153.802C129.714 153.802 153.802 129.714 153.802 99.9998C153.802 70.2855 129.714 46.1973 99.9998 46.1973ZM89.1208 51.389C92.6224 50.6088 96.2631 50.1973 99.9998 50.1973C103.737 50.1973 107.378 50.6088 110.879 51.3892L102.641 85.1306C101.783 84.9793 100.901 84.9004 100 84.9004C99.0992 84.9004 98.2168 84.9793 97.3593 85.1306L89.1208 51.389ZM85.2541 52.4164C74.6558 55.697 65.5708 62.4211 59.3065 71.2812L89.0178 89.6376C90.3 88.279 91.8315 87.1583 93.5392 86.3486L85.2541 52.4164ZM50.4136 95.3266C51.1119 87.823 53.4749 80.8025 57.1296 74.6381L86.6752 92.8922C85.857 94.423 85.2949 96.1113 85.0461 97.8998L50.4136 95.3266ZM50.2018 99.3219C50.1988 99.5475 50.1973 99.7735 50.1973 99.9998C50.1973 111.182 53.8825 121.503 60.1048 129.816L86.7524 107.249C85.863 105.627 85.2627 103.824 85.021 101.909L50.2018 99.3219ZM80.2245 145.722C73.4447 142.785 67.4465 138.385 62.6285 132.92L89.1293 110.478C90.3469 111.74 91.7826 112.792 93.3757 113.571L80.2245 145.722ZM83.957 147.162C88.9909 148.874 94.3869 149.802 99.9998 149.802C105.613 149.802 111.009 148.874 116.043 147.162L102.82 114.835C101.906 115.008 100.964 115.098 100 115.098C99.0364 115.098 98.0938 115.008 97.1803 114.835L83.957 147.162ZM137.371 132.92C132.553 138.385 126.555 142.785 119.775 145.722L106.624 113.571C108.217 112.792 109.653 111.741 110.871 110.478L137.371 132.92ZM139.895 129.815L113.248 107.249C114.137 105.627 114.738 103.824 114.979 101.909L149.798 99.3219C149.801 99.5475 149.802 99.7735 149.802 99.9998C149.802 111.182 146.117 121.503 139.895 129.815ZM113.325 92.892C114.143 94.4228 114.705 96.1112 114.954 97.8998L149.586 95.3266C148.888 87.8231 146.525 80.8026 142.87 74.6381L113.325 92.892ZM110.982 89.6374C109.7 88.279 108.169 87.1583 106.461 86.3486L114.746 52.4166C125.344 55.6973 134.429 62.4213 140.693 71.2813L110.982 89.6374ZM90.6276 95.0314C92.1407 92.1823 94.915 90.1053 98.2061 89.5446C98.1107 89.774 98.0581 90.0256 98.0581 90.2894C98.0581 90.4937 98.0897 90.6907 98.1482 90.8756C95.4645 91.4175 93.1992 93.114 91.893 95.4244C91.5669 95.1765 91.1601 95.0293 90.7189 95.0293C90.6883 95.0293 90.6578 95.03 90.6276 95.0314ZM89.5021 98.4844C89.4314 98.9789 89.3948 99.4845 89.3948 99.9986C89.3948 102.844 90.5154 105.428 92.3394 107.333C92.4652 106.89 92.744 106.512 93.1149 106.259C91.6106 104.606 90.6936 102.409 90.6936 99.9977C90.6936 99.6306 90.7149 99.2685 90.7562 98.9125C90.7438 98.9127 90.7313 98.9128 90.7189 98.9128C90.2582 98.9128 89.835 98.7524 89.5021 98.4844ZM99.9998 110.604C98.2992 110.604 96.692 110.203 95.2674 109.492C95.6441 109.246 95.9301 108.873 96.0645 108.433C97.2598 108.992 98.5934 109.304 99.9999 109.304C101.354 109.304 102.641 109.015 103.802 108.494C103.936 108.935 104.222 109.31 104.6 109.557C103.208 110.228 101.648 110.604 99.9998 110.604ZM107.543 107.453C109.436 105.537 110.605 102.904 110.605 99.9986C110.605 99.4964 110.57 99.0023 110.502 98.5187C110.165 98.8047 109.728 98.9775 109.251 98.9783C109.288 99.3131 109.306 99.6532 109.306 99.9977C109.306 102.456 108.353 104.691 106.796 106.355C107.161 106.618 107.43 107.004 107.543 107.453ZM101.794 89.5446C105.112 90.1099 107.904 92.2163 109.409 95.1013C109.356 95.0969 109.302 95.0947 109.248 95.0947C108.829 95.0947 108.441 95.2276 108.123 95.4534C106.82 93.1282 104.547 91.4197 101.852 90.8756C101.91 90.6907 101.942 90.4937 101.942 90.2894C101.942 90.0256 101.889 89.774 101.794 89.5446ZM99.9999 94.6914C97.0693 94.6914 94.6936 97.0671 94.6936 99.9977C94.6936 102.928 97.0693 105.304 99.9999 105.304C102.931 105.304 105.306 102.928 105.306 99.9977C105.306 97.0671 102.931 94.6914 99.9999 94.6914Z" fill="white"></path>
<path fill-rule="evenodd" clip-rule="evenodd" d="M99.9998 41.6211C67.7589 41.6211 41.6226 67.7575 41.6226 99.9983C41.6226 132.239 67.7589 158.376 99.9998 158.376C132.241 158.376 158.377 132.239 158.377 99.9983C158.377 67.7575 132.241 41.6211 99.9998 41.6211ZM45.6226 99.9983C45.6226 69.9666 69.9681 45.6211 99.9998 45.6211C130.031 45.6211 154.377 69.9666 154.377 99.9983C154.377 130.03 130.031 154.376 99.9998 154.376C69.9681 154.376 45.6226 130.03 45.6226 99.9983Z" fill="white"></path>
<path fill-rule="evenodd" clip-rule="evenodd" d="M100 33C62.9969 33 33 62.9969 33 100C33 137.003 62.9969 167 100 167C137.003 167 167 137.003 167 100C167 62.9969 137.003 33 100 33ZM37 100C37 65.2061 65.2061 37 100 37C134.794 37 163 65.2061 163 100C163 134.794 134.794 163 100 163C65.2061 163 37 134.794 37 100Z" fill="white"></path>
</svg>