<svg width="200" height="200" viewBox="0 0 200 200" fill="none" xmlns="http://www.w3.org/2000/svg">
<path fill-rule="evenodd" clip-rule="evenodd" d="M38 38.71C38 37.6054 38.8954 36.71 40 36.71H131.128C131.601 36.71 132.059 36.8778 132.42 37.1837C140.277 43.8372 148.168 50.4909 156.061 57.1462C156.512 57.5262 156.772 58.0857 156.772 58.6752V95.2611C156.772 95.8494 156.513 96.4079 156.064 96.7879C155.294 97.4394 154.525 98.0902 153.756 98.7405C149.167 102.623 144.599 106.487 140.032 110.37C144.161 116.91 148.29 123.477 152.418 130.042L152.433 130.066C152.498 130.168 152.553 130.276 152.597 130.388L154.12 132.748H160C161.105 132.748 162 133.643 162 134.748V161.3C162 162.405 161.105 163.3 160 163.3H126.72C126.01 163.3 125.352 162.923 124.994 162.31C120.33 154.342 115.659 146.383 110.986 138.422L110.978 138.409C106.502 130.783 102.025 123.155 97.5548 115.52H91.5786V132.68H102.904C104.009 132.68 104.904 133.575 104.904 134.68V161.266C104.904 162.37 104.009 163.266 102.904 163.266H40C38.8954 163.266 38 162.37 38 161.266V134.714C38 133.609 38.8954 132.714 40 132.714H52.6241V67.5009H40C38.8954 67.5009 38 66.6055 38 65.5009V38.71ZM42 40.71V63.5009H54.6241C55.7287 63.5009 56.6241 64.3964 56.6241 65.5009V134.714C56.6241 135.818 55.7287 136.714 54.6241 136.714H42V159.266H100.904V136.68H89.5786C88.474 136.68 87.5786 135.784 87.5786 134.68V113.52C87.5786 112.415 88.474 111.52 89.5786 111.52H98.7016C99.4119 111.52 100.069 111.897 100.428 112.51C105.091 120.477 109.763 128.437 114.436 136.398L114.443 136.411C118.92 144.037 123.397 151.665 127.867 159.3H158V136.748H153.03C152.35 136.748 151.717 136.403 151.349 135.832L149.06 132.283C148.986 132.169 148.925 132.048 148.876 131.923C144.491 124.948 140.107 117.977 135.724 111.039C135.192 110.197 135.36 109.093 136.118 108.447C141.13 104.182 146.142 99.9421 151.174 95.6856C151.706 95.2351 152.239 94.7843 152.772 94.3334V59.6058C145.304 53.3085 137.834 47.0089 130.395 40.71H42ZM87.6127 68.8114C87.6127 67.7068 88.5082 66.8114 89.6127 66.8114H114.487C114.953 66.8114 115.405 66.974 115.763 67.2712C116.47 67.8562 117.175 68.4491 117.874 69.0365L117.876 69.038C118.577 69.6275 119.272 70.2116 119.966 70.7864C120.425 71.1664 120.69 71.731 120.69 72.3266V85.432C120.69 86.0277 120.425 86.5923 119.966 86.9723C119.272 87.5471 118.577 88.1312 117.876 88.7207L117.872 88.7235C117.174 89.3105 116.469 89.9029 115.763 90.4875C115.405 90.7847 114.953 90.9473 114.487 90.9473H89.6127C88.5082 90.9473 87.6127 90.0519 87.6127 88.9473V68.8114ZM91.6127 70.8114V86.9473H113.765C114.275 86.5217 114.787 86.0916 115.302 85.6586L115.305 85.6558C115.765 85.2697 116.227 84.8813 116.69 84.4943V73.2644C116.227 72.8771 115.764 72.4884 115.304 72.1021L115.302 72.1001C114.787 71.6671 114.275 71.237 113.765 70.8114H91.6127Z" fill="white"></path>
</svg>