<svg width="200" height="200" viewBox="0 0 200 200" fill="none" xmlns="http://www.w3.org/2000/svg">
<path d="M86.3211 48.4187C88.604 49.6221 90.7075 51.1434 92.5892 53.0093C96.5735 56.96 98.9494 61.8119 100.056 67.1383C100.459 69.0786 100.67 70.9782 100.731 72.8062C100.771 74.0268 100.746 74.918 100.68 75.9495C100.116 83.3498 97.3847 88.0574 91.003 94.824L88.2078 97.7439L87.3689 98.6337C82.796 103.539 80.193 107.306 78.5719 112.163L91.5429 112.163L91.7155 111.728C93.5222 107.242 96.1289 103.13 99.4924 99.5126L99.9557 99.0224L100.409 98.5585C109.234 89.6558 121.476 85.5503 133.63 87.0984C134.538 87.2141 135.251 87.9316 135.362 88.8404C136.316 96.6616 135.007 104.586 131.587 111.6L131.313 112.152L131.306 112.163L140.514 112.164C151.417 112.164 160.374 120.971 160.74 131.866L160.749 132.214L160.752 132.561C160.752 135.801 159.998 138.942 158.582 141.758C159.763 142.571 160.796 143.74 162.18 145.603L162.68 146.285C165.192 149.744 166.383 150.728 168.72 150.728C169.825 150.728 170.72 151.623 170.72 152.728C170.72 153.832 169.825 154.728 168.72 154.728C164.772 154.728 162.761 153.148 159.677 148.954L159.027 148.066C157.348 145.801 156.454 144.946 155.146 144.474L155.124 144.468L154.905 144.395C154.457 144.261 153.944 144.188 153.399 144.188C151.201 144.188 149.968 145.123 147.789 148.096L147.575 148.39L146.915 149.302C145.945 150.629 145.219 151.502 144.341 152.305C142.576 153.887 140.559 154.73 138.107 154.73C135.7 154.73 133.867 153.979 132.163 152.507C131.278 151.751 130.638 151.035 129.678 149.758L129.467 149.476L128.4 148.018C126.195 145.052 125.021 144.188 122.842 144.188C120.596 144.188 119.417 145.107 117.076 148.301L116.86 148.598L116.218 149.476C115.337 150.662 114.732 151.389 114.03 152.052L113.852 152.216L113.53 152.499C111.857 153.946 109.907 154.73 107.578 154.73C105.246 154.73 103.265 153.941 101.606 152.507C100.546 151.602 99.8377 150.754 98.5099 148.931L98.295 148.635L98.0523 148.302C95.7108 145.107 94.5319 144.188 92.2854 144.188C90.0867 144.188 88.8609 145.117 86.6651 148.1L86.4495 148.395L86.122 148.847C84.8122 150.653 84.0357 151.593 82.9734 152.5C81.306 153.941 79.3249 154.73 76.9928 154.73C74.6641 154.73 72.7137 153.946 71.0495 152.507C70.1718 151.758 69.4919 150.992 68.5541 149.746L68.3329 149.45L67.3493 148.101C65.153 145.117 63.9272 144.188 61.7285 144.188C59.6096 144.188 58.3176 145.104 56.3715 147.695L56.1678 147.969L55.3511 149.09C54.9084 149.696 54.604 150.099 54.2966 150.479L54.181 150.621L53.9667 150.878L53.944 150.902L53.7685 151.114C51.7687 153.461 49.4843 154.728 46.4643 154.728C42.5194 154.728 40.5133 153.147 37.4345 148.949L36.7631 148.031C34.5493 145.052 33.3758 144.186 31.2 144.186C30.0954 144.186 29.2 143.29 29.2 142.186C29.2 141.081 30.0954 140.186 31.2 140.186C35.0302 140.186 37.0252 141.683 39.97 145.641L40.8706 146.869C43.0912 149.857 44.2716 150.728 46.4643 150.728C47.4221 150.728 48.2351 150.513 48.9916 150.059C42.9913 146.4 39.1402 139.821 39.1402 132.561C39.1402 131.674 39.1978 130.795 39.3104 129.929L39.31 129.949L39.3112 129.905C39.3268 129.225 39.4693 128.174 39.8306 126.777C40.4427 124.411 41.5357 121.698 43.2213 118.666C47.8413 110.356 56.0433 101.115 68.6783 91.1273L69.3594 90.5915C80.9311 81.5292 80.9821 74.2622 73.703 71.7496C66.2691 69.1836 58.496 73.7077 58.2677 83.1542L58.2629 83.4818C58.2629 87.1668 53.5097 88.732 51.388 85.6745C45.7697 77.5296 44.8424 67.2915 49.0717 59.0064C51.843 53.5662 56.343 49.8059 61.8613 47.4291C63.8117 46.5891 65.7688 45.978 67.659 45.557C68.8653 45.2883 69.785 45.1474 70.5849 45.0648L70.8595 45.0462L71.0146 45.0377C75.5649 44.805 81.0038 45.6159 86.3211 48.4187ZM103.249 101.375C99.4045 105.252 96.5774 109.796 94.8253 114.822C93.6557 118.196 92.9675 121.64 92.7816 125.097C92.7222 126.2 91.78 127.046 90.677 126.987C89.5741 126.927 88.728 125.985 88.7873 124.882C88.9449 121.953 89.4264 119.038 90.2204 116.163L59.4063 116.164C55.0751 116.164 50.9594 117.927 47.935 120.978C44.8965 124.016 43.1402 128.172 43.1402 132.561C43.1402 138.508 46.359 143.894 51.3447 146.805L51.6522 146.98L51.856 147.09L52.9423 145.603C55.69 141.871 57.9333 140.188 61.7285 140.188C65.5766 140.188 67.6657 141.786 70.5725 145.732L70.8037 146.049L71.5092 147.017C72.4105 148.236 72.9798 148.896 73.6562 149.473C74.6282 150.314 75.6635 150.73 76.9928 150.73C78.3305 150.73 79.3944 150.306 80.3667 149.466C81.0797 148.857 81.6788 148.147 82.689 146.767L82.8834 146.5L83.442 145.732C86.3482 141.786 88.4372 140.188 92.2854 140.188C96.2136 140.188 98.2165 141.763 101.277 145.935L101.508 146.253L101.732 146.56C102.879 148.136 103.454 148.825 104.212 149.473C105.177 150.306 106.24 150.73 107.578 150.73C108.907 150.73 109.943 150.313 110.923 149.466C111.546 148.934 112.047 148.369 112.855 147.292L113.033 147.054L114.079 145.626C117.012 141.685 119.012 140.188 122.842 140.188C126.77 140.188 128.773 141.763 131.834 145.936L132.066 146.254L132.289 146.56C133.437 148.136 134.011 148.825 134.769 149.473C135.786 150.352 136.71 150.73 138.107 150.73C139.527 150.73 140.61 150.277 141.656 149.34C142.117 148.919 142.555 148.426 143.086 147.741L143.289 147.476L143.681 146.947L144.561 145.733C147.449 141.796 149.551 140.188 153.399 140.188C153.672 140.188 153.942 140.199 154.209 140.221L154.607 140.262L154.835 140.294L154.978 140.023C156.002 138.005 156.603 135.777 156.728 133.463L156.746 132.999L156.752 132.561C156.752 123.655 149.602 116.338 140.828 116.167L140.514 116.164L129.007 116.164C127.619 118.307 125.951 120.351 124.006 122.314C116.238 130.119 105.909 134.258 95.2243 134.072C94.1198 134.053 93.2401 133.142 93.259 132.038C93.2786 130.933 94.1895 130.054 95.2939 130.073C104.897 130.24 114.174 126.522 121.167 119.496C123.126 117.519 124.76 115.468 126.07 113.322C126.103 113.248 126.142 113.175 126.187 113.104C130.196 106.687 132.057 99.1325 131.596 91.5679L131.556 90.9861L131.549 90.9002L131.042 90.8624C120.808 90.1599 110.686 93.8723 103.249 101.375ZM71.5652 49.0179L70.9417 49.0484L70.5608 49.0931C70.0231 49.1628 69.3623 49.2756 68.5286 49.4613C66.8709 49.8305 65.1503 50.3678 63.4436 51.1029C59.8318 52.6585 56.7707 54.8727 54.4987 57.8547C56.6664 58.4534 58.8426 59.4068 61.0007 60.8519C63.7408 62.6872 65.7789 64.8765 67.2957 67.207C69.6873 66.8562 72.2179 67.0584 74.709 67.8683L75.0081 67.9685C79.6176 69.5596 82.6395 73.132 82.6075 77.699C82.5733 82.5651 79.1198 87.9231 72.2421 93.4116L71.8253 93.7411C62.5853 100.974 55.7909 107.748 51.0764 113.984C53.5066 112.871 56.1594 112.24 58.8928 112.17L59.4063 112.164L74.3803 112.163C76.2183 105.882 79.2823 101.376 84.8767 95.4437L87.7122 92.4812L88.4693 91.6785C93.9993 85.7486 96.2226 81.7937 96.6897 75.6698C96.7466 74.7808 96.7683 74.0095 96.7328 72.9387C96.6794 71.3295 96.4939 69.6558 96.1399 67.9521C95.1829 63.3467 93.153 59.2014 89.7727 55.8496C88.1789 54.2691 86.3969 52.9803 84.4559 51.9572C81.8555 50.5865 79.0631 49.7359 76.2174 49.3116C74.4362 49.0461 72.8606 48.9745 71.5652 49.0179ZM52.3333 61.4418L52.2782 61.5601C49.2669 68.12 49.9844 76.0698 54.1785 82.6465L54.277 82.7972L54.2798 82.7223C54.5617 75.6468 58.2638 70.6486 63.2421 68.3918C62.0901 66.8552 60.6266 65.4157 58.775 64.1755C56.6363 62.7434 54.4754 61.8977 52.3333 61.4418ZM72.5182 51.3715C75.5192 51.3715 77.9449 53.8183 77.9449 56.828C77.9449 59.8378 75.5192 62.2846 72.5182 62.2846C69.5172 62.2846 67.0916 59.8378 67.0916 56.828C67.0916 53.8183 69.5173 51.3715 72.5182 51.3715ZM72.5182 55.3715C71.7342 55.3715 71.0916 56.0198 71.0916 56.828C71.0916 57.6364 71.7342 58.2846 72.5182 58.2846C73.3023 58.2846 73.9449 57.6364 73.9449 56.828C73.9449 56.0197 73.3023 55.3715 72.5182 55.3715Z" fill="white"></path>
</svg>