<svg width="200" height="200" viewBox="0 0 200 200" fill="none" xmlns="http://www.w3.org/2000/svg">
<path fill-rule="evenodd" clip-rule="evenodd" d="M118.714 34.5155C119.494 33.735 120.76 33.7343 121.541 34.5141L135.443 48.3898L141.924 41.9334C142.706 41.1548 143.97 41.156 144.75 41.936L158.054 55.2398C158.835 56.0208 158.835 57.2872 158.054 58.0682L151.574 64.5476L165.474 78.4475C166.255 79.2285 166.255 80.4948 165.474 81.2759L154.734 92.0165L160.98 98.2544C161.355 98.6294 161.566 99.1382 161.566 99.6688C161.566 100.2 161.356 100.708 160.98 101.084L148.8 113.264C148.019 114.045 146.753 114.045 145.972 113.264L124.415 91.7071L91.7073 124.414L113.264 145.971C114.045 146.752 114.045 148.019 113.264 148.8L101.084 160.98C100.709 161.355 100.2 161.566 99.6691 161.566C99.1384 161.566 98.6296 161.355 98.2546 160.979L92.0167 154.733L81.2761 165.474C80.4956 166.254 79.2303 166.255 78.4491 165.475L64.5465 151.6L58.0658 158.056C57.2843 158.835 56.02 158.833 55.24 158.053L41.9363 144.75C41.5612 144.375 41.3505 143.866 41.3505 143.335C41.3505 142.805 41.5612 142.296 41.9363 141.921L48.4156 135.442L34.5157 121.542C33.7347 120.761 33.7347 119.495 34.5157 118.714L45.2563 107.973L39.0103 101.735C38.6349 101.36 38.4238 100.851 38.4236 100.321C38.4235 99.7899 38.6342 99.2809 39.0094 98.9057L51.1898 86.7253C51.5648 86.3503 52.0735 86.1396 52.604 86.1396C53.1344 86.1396 53.6431 86.3503 54.0182 86.7253L75.5751 108.282L108.283 75.5749L86.7256 54.0179C86.3505 53.6429 86.1398 53.1342 86.1398 52.6037C86.1398 52.0733 86.3505 51.5646 86.7256 51.1895L98.9059 39.0092C99.2812 38.634 99.7901 38.4232 100.321 38.4234C100.851 38.4236 101.36 38.6346 101.735 39.0101L107.973 45.2561L118.714 34.5155ZM124.687 61.962L124.706 61.9803L138.009 75.2841L138.027 75.3022L151.909 89.184L161.232 79.8617L148.484 67.1141C148.474 67.1043 148.464 67.0944 148.454 67.0844L148.179 66.809L147.332 65.9618C147.314 65.9445 147.298 65.9271 147.281 65.9094L134.026 52.6276C134.021 52.622 134.015 52.6163 134.01 52.6106C134.007 52.6077 134.004 52.6049 134.001 52.602L120.129 38.7568L110.806 48.0805L124.687 61.962ZM153.811 56.654L148.748 61.7168L138.271 51.2186L143.333 46.176L153.811 56.654ZM134.991 77.9225C135.049 78.0001 135.112 78.0738 135.182 78.143L156.737 99.6704L147.386 109.021L125.862 87.498C125.852 87.4865 125.84 87.4751 125.829 87.4638L112.525 74.16C112.514 74.1486 112.502 74.1374 112.491 74.1263L90.9682 52.6037L100.319 43.2527L121.847 64.8079C121.916 64.8772 121.99 64.9409 122.067 64.9987L134.991 77.9225ZM78.4041 111.11L111.111 78.4029L121.587 88.8783L88.8795 121.585L78.4041 111.11ZM74.2022 112.565C74.1883 112.552 74.1745 112.539 74.1609 112.525L52.604 90.968L43.253 100.319L64.8081 121.846L64.8143 121.853L78.1376 135.176L78.1433 135.182L99.6706 156.737L109.022 147.386L87.4647 125.829C87.4512 125.815 87.4379 125.802 87.4248 125.788L74.2022 112.565ZM75.0949 137.79L62.1996 124.895C62.1229 124.838 62.0496 124.774 61.9806 124.705L48.0807 110.805L38.7584 120.128L52.6304 134C52.6403 134.009 52.6501 134.019 52.6599 134.029L65.9637 147.362L65.9878 147.387L79.8605 161.233L89.1843 151.909L75.2844 138.009C75.2153 137.94 75.1521 137.867 75.0949 137.79ZM46.1789 143.335L51.2427 138.272L61.7186 148.771L56.6569 153.813L46.1789 143.335Z" fill="white"></path>
</svg>