<svg width="200" height="200" viewBox="0 0 200 200" fill="none" xmlns="http://www.w3.org/2000/svg">
<path d="M90.6172 30.0166L90.3491 30.002H90.0811C89.6351 30.0152 89.1926 30.0899 88.7663 30.2248L88.4442 30.3347L86.7111 30.8902C86.4561 30.9746 86.2444 31.0475 86.0092 31.1318C78.1326 33.7209 71.1473 38.6002 65.9722 45.1456C62.8929 49.1528 61.0053 53.9147 60.5052 58.9156C60.2043 61.9619 60.3063 65.0319 60.8082 68.0485L60.9071 68.701C61.2921 71.0899 61.9232 73.4425 62.7871 75.715L62.864 75.9112L62.82 75.8777C62.7467 75.8247 62.672 75.7734 62.5959 75.724L62.3644 75.5818C61.5822 75.128 60.6981 74.8781 59.794 74.8553L59.6622 74.8566C58.5632 74.8073 57.4783 75.1201 56.5743 75.7471C55.6703 76.374 54.9971 77.2805 54.6583 78.3273C54.343 79.3402 54.1873 80.3725 54.1896 81.4103L54.1895 82.4424C54.1931 82.895 54.2012 83.4061 54.2149 84.1006L54.2586 86.4938C54.2662 87.1231 54.2659 87.6033 54.2584 88.141L54.245 88.4694L54.227 88.6432L54.1776 88.5163C53.9709 87.9668 53.796 87.3995 53.6566 86.8223L53.546 86.2992C53.3653 85.4107 53.1992 84.4235 53.0034 83.1182L52.7162 81.1693L52.581 80.2862L52.589 80.4394C52.5495 78.7441 51.8777 77.1247 50.7055 75.8994L50.4944 75.6882C49.4179 74.6574 48.032 74.009 46.5508 73.8431L46.3752 73.8284C45.3208 73.6917 44.2503 73.896 43.3203 74.4112C42.4678 74.8835 41.7743 75.5944 41.3231 76.4539L41.2574 76.5881C40.8561 77.3439 40.632 78.181 40.6021 79.0361C40.5755 79.7963 40.703 80.5529 40.9758 81.2609L41.0848 81.524C41.4726 82.4991 41.9906 83.5015 42.6016 84.4464L44.2527 86.8486L48.045 92.3002L45.8753 90.8168L43.9496 89.5627L42.7461 88.7915C41.6644 88.1055 40.905 87.6504 40.0822 87.2002L39.718 87.0032L39.4898 86.8655C37.8203 85.8976 35.9083 85.4282 33.9804 85.5129L33.732 85.5282L33.8748 85.5312C33.0225 85.49 32.1774 85.7052 31.4487 86.1489C30.7202 86.5925 30.141 87.2443 29.7864 88.0203C29.4317 88.7962 29.3177 89.6606 29.459 90.5019L29.5088 90.7524C29.6613 91.4149 29.9699 92.0314 30.4088 92.5506L30.488 92.6382L30.4336 92.5694C31.6239 94.1377 33.1905 95.3808 34.9883 96.1837L35.547 96.4519C36.1039 96.7295 36.6546 97.0348 37.1927 97.3647L37.621 97.6352L37.7558 97.755C38.1041 98.08 38.405 98.4525 38.6495 98.8615L38.823 99.1732L38.568 99.3843C38.3895 99.5289 38.1926 99.6747 37.9117 99.8716L36.911 100.559L36.9679 100.525C36.2834 100.946 35.6213 101.403 34.9846 101.895C33.9834 102.628 33.278 103.764 33.0553 105.036L33.0174 105.29C32.882 106.395 33.1191 107.514 33.691 108.469L33.763 108.582L33.707 108.479C33.9507 108.958 34.2357 109.414 34.5587 109.842C35.2007 110.761 36.2121 111.459 37.3674 111.753C38.5261 112.046 39.7489 111.914 40.8156 111.381C41.689 110.974 42.5486 110.418 43.3207 109.753L43.7232 109.402C44.0328 109.127 44.3475 108.837 44.7613 108.447L46.018 107.254C46.4194 106.876 46.7117 106.606 47.002 106.349L47.323 106.068L47.3774 106.139C47.5476 106.355 47.6769 106.556 47.7861 106.768L49.3102 109.843C49.6955 110.629 50.0427 111.346 50.3878 112.068L50.7841 112.931L51.3057 114.112C51.7243 115.062 51.9919 115.648 52.2728 116.21L52.497 116.648L52.4512 116.545C53.1859 118.314 54.4716 119.799 56.1169 120.779C57.6585 121.698 59.4408 122.128 61.2282 122.017L61.5857 121.987C63.1583 121.889 64.7945 121.612 66.3895 121.167C69.7093 120.111 73.0294 119.31 76.3947 118.751C78.2499 118.468 80.1492 118.294 82.0559 118.234C82.5064 118.213 82.9185 118.339 83.2529 118.59L83.3738 118.689C83.6061 118.898 83.7801 119.163 83.8788 119.458L83.904 119.548L83.8918 119.458C84.0357 120.359 84.0641 121.274 83.9761 122.182L83.9454 122.642C83.9252 122.892 83.8985 123.148 83.8591 123.477L83.6974 124.762C83.6273 125.335 83.5861 125.742 83.5608 126.152L83.4711 128.051L83.4483 128.346L83.3945 128.649C83.3446 128.977 83.3033 129.418 83.243 130.29L83.2143 130.701L82.7918 133.252C81.5213 140.91 80.5919 147.247 80.0017 153.129L79.9297 153.862C79.532 158.001 79.3792 161.361 79.5177 163.833L79.5559 164.414C79.816 167.822 80.646 169.791 83.0419 169.851L90.3486 170.068L91.8696 170.124C93.3811 170.164 95.7656 170.185 98.8962 170.189L104.071 170.183L118.474 170.076C119.547 170.064 120.47 170.052 121.176 170.041C122.853 170.014 123.764 168.818 124.213 167.1C124.494 166.026 124.627 164.606 124.645 162.814C124.674 159.849 124.389 155.881 123.838 150.868L123.724 149.846L123.605 148.819C123.476 147.72 123.337 146.582 123.183 145.368L121.951 135.928C121.701 133.943 121.576 132.737 121.565 132.18L121.56 131.504C121.558 131.335 121.554 131.189 121.548 131.047L121.517 130.35C121.514 130.233 121.512 130.106 121.511 129.947L121.512 129.577C121.533 126.663 121.477 123.749 121.342 120.839L121.331 120.705L121.3 120.368C121.227 119.357 121.344 118.346 121.641 117.385L121.739 117.087L121.793 117.099C122.759 117.311 123.7 117.625 124.602 118.035L125.546 118.452C128.386 119.681 131.305 120.709 134.284 121.531L135.234 121.784L135.148 121.758C136.849 122.325 138.674 122.412 140.422 122.01C142.171 121.607 143.774 120.73 145.055 119.474C146.302 118.175 147.344 116.775 148.201 115.264L148.517 114.68C148.927 113.912 149.304 113.154 149.821 112.069L151.557 108.401L151.929 107.645C151.984 107.54 152.041 107.438 152.1 107.338L152.245 107.104L152.318 107.175C152.629 107.481 152.933 107.807 153.222 108.144C154.022 109.163 154.932 110.201 155.894 111.19L155.988 111.28C159.055 114.044 161.4 114.029 164.477 111.254C164.579 111.165 164.684 111.066 164.787 110.961L164.942 110.801C165.405 110.349 165.819 109.733 166.096 109.052C166.373 108.374 166.508 107.643 166.492 106.907C166.476 106.171 166.309 105.446 166.001 104.778C165.732 104.192 165.361 103.66 164.905 103.208L164.704 103.019C164.409 102.727 164.109 102.482 163.553 102.064L162.87 101.551C162.756 101.463 162.668 101.392 162.577 101.315L162.155 100.946C161.879 100.696 161.611 100.438 161.352 100.171L161.235 100.045L161.343 99.923C161.438 99.8206 161.54 99.7243 161.648 99.6348L161.787 99.5262L162.356 99.1748C162.581 99.0379 162.832 98.8889 163.147 98.7039L164.85 97.7077C165.375 97.397 165.745 97.1684 166.169 96.895C167.272 96.2204 168.338 95.3991 169.307 94.4705L169.475 94.2955C170.934 92.7237 171.025 91.2221 169.941 89.4699L169.884 89.3812L169.963 89.5386C169.517 88.5744 168.739 87.8026 167.772 87.3647C166.803 86.9269 165.711 86.8523 164.692 87.1544C162.645 87.7545 160.677 88.6135 158.843 89.7083L156.589 91.0835C155.001 92.0437 153.861 92.7063 152.628 93.3794L152.275 93.5449L152.145 93.5992L152.423 93.177C152.539 93.0027 152.641 92.8529 152.743 92.7088L153.541 91.6109L156.171 88.0807C156.875 87.1249 157.362 86.4388 157.902 85.6438C158.663 84.4562 159.265 83.2237 159.717 81.9393L159.88 81.4552C160.25 80.4445 160.233 79.2502 159.805 78.1756L159.708 77.9485C159.296 77.0524 158.613 76.3078 157.755 75.8203L157.636 75.7562L157.728 75.8131C157.121 75.4199 156.443 75.1505 155.732 75.0201C155.022 74.8898 154.292 74.9008 153.585 75.0525C152.879 75.2045 152.21 75.4939 151.615 75.9042C151.019 76.3166 150.511 76.841 150.12 77.4486C148.744 79.6607 147.74 82.0464 147.128 84.5443L146.459 86.8562L146.481 86.3884C146.499 86.0689 146.52 85.7497 146.544 85.4308L146.603 84.9035C146.758 83.3133 146.72 81.6532 146.484 80.0105L146.401 79.4812L146.417 79.6015C146.353 78.9594 146.162 78.3359 145.856 77.7669C145.546 77.1945 145.13 76.6927 144.629 76.2861C144.127 75.8788 143.55 75.5749 142.93 75.3921L142.662 75.3214C142.214 75.2163 141.753 75.175 141.293 75.1985L140.848 75.2308C139.473 75.3549 138.173 75.9136 137.137 76.8257L137.08 76.8772L137.137 76.7905L137.467 76.2567C139.452 72.8278 140.63 69.0327 140.932 65.1199C140.992 64.3257 140.98 63.5296 140.894 62.7399L140.834 62.267C140.561 59.9209 139.963 57.5643 139.064 55.315C136.353 48.3853 132.268 42.0589 127.058 36.7256C125.353 35.0552 123.371 33.7663 121.195 32.9027C119.174 32.1006 117.023 31.68 114.852 31.6609L114.351 31.6636C111.678 31.6228 109.961 33.2968 109.76 35.9793L109.724 36.5288C109.708 36.8486 109.709 37.1951 109.727 37.5474L109.747 37.8422L109.744 37.7647C109.77 39.2123 110.276 40.6102 111.183 41.7384C112.092 42.8678 113.349 43.6621 114.758 43.9974C115.149 44.0748 115.451 44.1583 115.747 44.2657L115.938 44.3245C117.734 44.7804 119.416 45.6012 120.881 46.7358C122.347 47.8704 123.562 49.2944 124.453 50.9192C124.917 51.8162 125.412 52.7447 125.926 53.6842L126.315 54.3905C128.113 57.566 129.057 61.1348 129.064 64.7672C129.095 67.051 128.5 69.2756 127.345 71.218C125.673 73.7997 123.283 75.9268 120.465 77.321L119.972 77.5558L119.557 77.803C118.389 78.4617 117.098 78.8662 115.768 78.9933L115.487 79.0142L115.405 79.0892C117.47 77.3002 119.084 75.0497 120.118 72.5198C121.236 69.4918 121.616 66.3082 121.251 63.172L121.144 62.354C120.798 60.0987 119.636 58.0086 117.874 56.5002L117.669 56.3302L117.755 56.4086C117.338 56.009 116.844 55.6992 116.303 55.4985C115.762 55.2975 115.185 55.2102 114.608 55.2418C114.031 55.2734 113.466 55.4234 112.95 55.6826C112.434 55.9415 111.975 56.3043 111.605 56.7482C111.072 57.3312 110.612 58.0864 110.305 58.9085L110.265 59.0249L110.158 59.4017C109.724 61.0413 109.701 62.7625 110.09 64.413L110.159 64.6832L110.156 64.6605C110.451 66.1073 110.281 67.6097 109.668 68.952C109.056 70.2958 108.034 71.4102 106.749 72.1358L106.647 72.1932L106.553 72.2621C106.475 72.3187 106.385 72.3583 106.289 72.3777C106.194 72.397 106.096 72.3955 106.001 72.3733C102.461 71.4124 98.6655 71.3659 95.0366 72.2549C94.9704 72.2692 94.8587 72.2617 94.7558 72.2238C92.9928 71.6252 91.4261 70.6668 90.1279 69.4057L89.7781 69.0565C89.1713 68.4915 88.7407 67.7631 88.5382 66.9589C88.3584 66.2443 88.3656 65.4968 88.5569 64.7881L88.6373 64.5244C88.9076 63.677 89.0991 62.8349 89.2169 61.986L89.2788 61.4757C89.4324 60.4572 89.3241 59.3278 88.9522 58.2733C88.5802 57.2185 87.956 56.271 87.134 55.513C86.709 55.091 86.1429 54.723 85.5205 54.4792C84.8982 54.2355 84.2328 54.1212 83.5648 54.1433C82.8968 54.1654 82.2402 54.3234 81.6354 54.6078C81.0307 54.892 80.4903 55.2966 80.047 55.7968L79.9732 55.885C79.4127 56.5961 78.9612 57.3868 78.6336 58.2311C77.5151 61.0077 77.1125 64.0474 77.4724 67.0445C77.5801 68.4917 78.0146 69.9853 78.7396 71.3428C79.4646 72.7003 80.4642 73.8921 81.6748 74.8422L82.018 75.1082C82.3661 75.3718 82.7395 75.6366 83.2353 75.9761L84.8208 77.0539L86.6124 78.2405C87.0947 78.5653 87.4257 78.7996 87.7925 79.0747L87.9052 79.1628L88.0022 79.2459L88.036 79.2782L87.9861 79.3074C87.9141 79.3455 87.8312 79.3847 87.7373 79.424C87.101 79.694 86.4358 79.861 85.7568 79.9228C84.2066 80.0411 82.6229 79.7548 81.1858 79.0888C79.8596 78.4741 78.6992 77.5547 77.7982 76.4077L77.5784 76.1163C75.3386 73.188 73.8375 69.8253 73.1634 66.255L73.1398 66.1465C72.2841 62.6817 72.6042 59.0307 74.0497 55.7675C75.7117 52.1814 78.2624 49.0389 81.4572 46.6547L82.0712 46.1919C84.7466 44.2099 87.613 42.5328 90.6339 41.1797L91.249 40.9092L91.0919 40.9589C91.8248 40.7512 92.5079 40.3974 93.1003 39.9186C93.6927 39.4398 94.1821 38.8458 94.5386 38.1727C94.8951 37.5 95.1117 36.7616 95.1752 36.0025L95.1918 35.7176C95.2105 35.1478 95.1427 34.5784 94.9907 34.0289L94.953 33.9062L94.9854 34.0763C94.8744 33.3678 94.6067 32.6929 94.202 32.1009C93.797 31.5087 93.2652 31.0144 92.6451 30.6538C92.0249 30.2932 91.3321 30.0755 90.6172 30.0166ZM90.2885 34.003C90.4105 34.0131 90.5287 34.0502 90.6344 34.1117C90.7402 34.1732 90.8309 34.2576 90.9 34.3586C90.969 34.4595 91.0147 34.5748 91.0337 34.6957L91.0593 34.8591L91.1114 35.0161C91.1812 35.2262 91.2076 35.4483 91.1891 35.6689C91.1706 35.8898 91.1077 36.1045 91.0041 36.3C90.9003 36.4959 90.7581 36.6686 90.5858 36.8078C90.4135 36.947 90.2149 37.0499 90.0016 37.1103L89.8779 37.1454L89.7597 37.196C85.9404 38.8308 82.3405 40.9367 79.044 43.4647C75.3375 46.2305 72.3618 49.8968 70.4064 54.1166L70.2233 54.5429C68.6213 58.393 68.2508 62.6156 69.1512 66.6572L69.2329 66.997C69.9885 70.9995 71.631 74.7793 74.037 78.06L74.3698 78.5043C75.6676 80.2987 77.4462 81.7642 79.5038 82.718C81.5616 83.6716 83.8294 84.0817 86.0906 83.9088C87.2116 83.8069 88.2816 83.5383 89.2909 83.11C92.7931 81.644 93.2354 78.1556 90.1921 75.8743L89.7793 75.5702C89.4601 75.3395 89.1318 75.113 88.6983 74.823L86.8267 73.5826L85.2941 72.5373C84.8164 72.2071 84.4815 71.9627 84.1517 71.7014C83.3704 71.0882 82.7314 70.3263 82.2679 69.4585C81.856 68.6871 81.5908 67.847 81.4847 66.9808L81.4524 66.6549C81.1643 64.2391 81.4771 61.8775 82.3534 59.7018L82.4765 59.4096C82.607 59.1237 82.7591 58.8565 82.9331 58.6062L83.072 58.4182L83.0407 58.4496C83.1235 58.3562 83.2243 58.2808 83.3372 58.2277C83.4499 58.1747 83.5723 58.1452 83.697 58.1411C83.8216 58.137 83.9457 58.1583 84.0618 58.2038C84.1779 58.2492 84.2834 58.3178 84.372 58.4055C84.7648 58.7693 85.0249 59.1642 85.18 59.6037C85.3348 60.0429 85.38 60.5135 85.3113 60.9745C85.2222 61.8128 85.0674 62.5538 84.8382 63.2733C84.335 64.7514 84.2686 66.3833 84.6592 67.9353L84.7432 68.2438C85.1324 69.5715 85.8473 70.7809 86.8227 71.7618L86.9767 71.9097C88.7689 73.7654 90.9785 75.1658 93.4215 75.9943C94.196 76.2806 95.09 76.3406 95.9473 76.1497C98.9599 75.4121 102.067 75.4502 105.021 76.2507C105.742 76.4213 106.424 76.4318 107.083 76.2982L107.364 76.2323C107.827 76.1084 108.269 75.9139 108.673 75.6556L108.799 75.5692L108.715 75.6192C110.738 74.4774 112.346 72.724 113.308 70.6109C114.271 68.4994 114.539 66.1355 114.075 63.8601L113.97 63.4371C113.75 62.4629 113.764 61.4502 114.01 60.482L114.071 60.2612L114.051 60.3093C114.155 60.0318 114.299 59.7736 114.479 59.5427L114.621 59.3747C114.694 59.2893 114.717 59.2712 114.744 59.2579C114.77 59.2448 114.798 59.2374 114.826 59.2358C114.856 59.2342 114.884 59.2385 114.911 59.2483C114.939 59.2588 114.964 59.2748 114.985 59.295L115.122 59.4149C116.292 60.3482 117.045 61.7051 117.221 63.1918C117.6 65.8779 117.313 68.5695 116.391 71.0712L116.23 71.4459C115.508 73.0604 114.437 74.5514 113.099 75.7856L112.791 76.0602L112.892 75.9798C112.31 76.4182 111.847 76.9966 111.548 77.6612C111.249 78.3254 111.124 79.0548 111.181 79.7813C111.424 81.8766 112.418 82.8351 114.448 83.0258L114.597 83.0342L115.029 83.0357C117.335 83.0065 119.596 82.39 121.597 81.2445L121.869 81.0822L121.764 81.1341C125.433 79.4293 128.546 76.7229 130.743 73.3269C132.316 70.6855 133.105 67.7344 133.064 64.7358C133.056 60.6179 132.024 56.5479 130.065 52.9073L129.804 52.4349C129.177 51.3038 128.567 50.1676 127.983 49.0386C126.806 46.8898 125.23 45.0439 123.331 43.5732L122.947 43.2845C121.269 42.0572 119.386 41.1386 117.386 40.572L117.009 40.4702L117.113 40.5063C116.62 40.3269 116.114 40.187 115.6 40.0879C115.139 39.9763 114.652 39.6687 114.3 39.2315C113.994 38.8503 113.805 38.3879 113.756 37.9024L113.737 37.557C113.716 37.3164 113.709 37.0749 113.716 36.8336L113.756 36.1139C113.787 35.7247 113.857 35.6662 114.178 35.6619L114.36 35.663C116.239 35.6272 118.037 35.9529 119.719 36.6206C121.402 37.2882 122.934 38.2845 124.227 39.5518C129.032 44.4707 132.823 50.3421 135.345 56.7862C136.118 58.722 136.629 60.7351 136.869 62.7863C136.971 63.4959 136.994 64.1574 136.944 64.8148C136.688 68.1272 135.69 71.3427 134.024 74.2213C132.74 76.3481 131.112 78.2948 129.217 79.9613C125.802 82.7325 122.049 85.1984 118.076 87.2698L117.537 87.5821C116.828 88.0027 116.159 88.4417 115.516 88.9071L115.137 89.1872L115.274 89.1073C114.259 89.6726 113.492 90.596 113.122 91.6973C112.753 92.7981 112.806 93.9968 113.273 95.0595L114.139 97.1379C114.277 97.4624 114.393 97.7223 114.522 97.9957L115.311 99.6117L117.287 103.567L117.71 103.811C116.628 103.207 115.559 102.519 114.538 101.767L114.339 101.609C114.138 101.445 113.926 101.26 113.65 101.009L112.39 99.8406C111.975 99.459 111.687 99.2071 111.344 98.9264C110.482 98.2233 109.385 97.8826 108.279 97.9745C107.173 98.0663 106.145 98.5838 105.413 99.4177C104.561 100.415 103.852 101.498 103.291 102.657L103.088 103.095C102.389 104.545 102.015 106.194 102.021 107.862C102.026 109.529 102.41 111.175 103.145 112.675L103.278 112.935C103.512 113.364 103.798 113.769 104.129 114.135L104.217 114.227L104.096 114.061C104.383 114.484 104.757 114.84 105.193 115.106C105.635 115.374 106.124 115.543 106.631 115.604C107.139 115.665 107.653 115.618 108.14 115.464L108.384 115.377C108.623 115.281 108.85 115.162 109.062 115.02L109.259 114.875L109.935 114.482L112.264 113.079C112.857 112.728 113.294 112.483 113.741 112.251L114.043 112.097C115.491 111.325 117.035 110.874 118.621 110.749C120.206 110.622 121.802 110.825 123.307 111.343L123.781 111.506C125.994 112.272 128.263 113.138 131.057 114.266L132.228 114.741L132.103 114.68C132.861 115.083 133.725 115.243 134.577 115.135L134.831 115.095C135.503 114.967 136.133 114.675 136.665 114.244L136.785 114.139L136.733 114.183C137.51 113.58 138.218 112.891 138.843 112.131L138.936 112.008L139.151 111.716C139.667 111.047 140.288 110.466 140.99 109.993L141.284 109.803L141.193 109.855C142.559 109.13 143.601 107.923 144.121 106.474L144.175 106.309C144.416 105.662 144.454 104.957 144.283 104.288L144.219 104.068C144.053 103.561 143.769 103.101 143.393 102.724L143.347 102.684C142.533 101.843 141.513 101.231 140.387 100.91L140.078 100.83C139.147 100.612 138.181 100.598 137.244 100.788L137.046 100.832L136.578 100.915C136.175 100.989 135.76 101.075 135.212 101.197L133.114 101.669L132.705 101.754L132.436 101.804L131.756 100.464C131.042 99.0618 130.53 98.0941 129.983 97.1303C129.923 97.0207 129.886 96.873 129.889 96.7224C129.891 96.574 129.933 96.4278 130.01 96.2987C130.086 96.1697 130.194 96.0641 130.324 95.9913C130.455 95.9172 130.602 95.8791 130.752 95.8802L131.846 95.8969L135.098 95.9704C135.538 95.978 135.914 95.9821 136.273 95.9829L136.658 95.9825C136.849 95.9817 137.04 95.98 137.239 95.9773C138.318 95.9457 139.325 95.5757 140.142 94.9219L140.219 94.857C140.816 94.328 141.227 93.6226 141.394 92.8433L141.437 92.6101C141.532 91.9856 141.465 91.3444 141.244 90.7496L141.207 90.6602L141.055 90.2342C140.989 90.0447 140.923 89.8505 140.851 89.6321L139.937 86.7773C139.836 86.4697 139.747 86.2076 139.646 85.9179C139.084 84.4585 138.852 82.9604 138.943 81.4653C138.99 80.8965 139.258 80.328 139.697 79.9051C140.086 79.5293 140.586 79.2913 141.119 79.2241L141.447 79.1974C141.565 79.1845 141.684 79.1952 141.798 79.2289C141.911 79.2621 142.017 79.3175 142.109 79.3927C142.201 79.4671 142.278 79.5596 142.335 79.6656C142.39 79.7681 142.425 79.8833 142.437 79.9991L142.456 80.1369C142.731 81.7525 142.768 83.4013 142.565 85.0302C142.423 86.8593 142.381 88.6005 142.431 90.3407L142.446 90.8045C142.512 92.2729 142.762 92.9912 143.72 93.723L143.869 93.833C144.184 94.0579 144.376 94.1661 145.076 94.5134L146.975 95.4484L147.051 95.3392L147.079 95.4909C147.143 95.7749 147.261 96.0641 147.44 96.3594L147.486 96.4322L147.416 96.3017C147.76 96.988 148.324 97.5388 149.018 97.8661C149.712 98.1929 150.496 98.2779 151.243 98.1073C152.384 97.8241 153.455 97.4314 154.474 96.9271L155.032 96.6204L155.582 96.3128C156.699 95.6831 157.828 95.0132 159.342 94.0918L160.455 93.411C162.136 92.3547 163.937 91.5439 165.824 90.9911C165.927 90.9604 166.031 90.9675 166.123 91.0092C166.215 91.0508 166.289 91.1244 166.331 91.2164L166.395 91.3542L166.541 91.5772L166.502 91.6197C165.881 92.2132 165.177 92.7727 164.422 93.2671L163.646 93.7593C163.472 93.868 163.296 93.976 163.099 94.0943L160.414 95.6742C160.262 95.7659 160.121 95.8518 159.983 95.9375L159.566 96.1994L159.468 96.2662L159.199 96.4707C158.759 96.8216 158.362 97.2226 158.016 97.6654L157.884 97.8422L157.969 97.7449C157.37 98.4018 157.048 99.2634 157.067 100.151C157.084 100.965 157.387 101.745 157.92 102.356L158.071 102.518C158.626 103.133 159.289 103.772 159.992 104.368L160.188 104.53C160.285 104.609 160.386 104.688 160.504 104.778L161.29 105.368C161.523 105.545 161.682 105.673 161.816 105.793L161.969 105.937C162.175 106.124 162.288 106.276 162.367 106.448C162.446 106.62 162.488 106.805 162.493 106.993C162.497 107.183 162.462 107.37 162.392 107.542C162.338 107.674 162.265 107.796 162.174 107.905L162.077 108.011C162.001 108.09 161.947 108.145 161.901 108.19L161.371 108.665C160.257 109.64 160.058 109.558 158.82 108.447L158.724 108.361L158.76 108.4C157.896 107.511 157.079 106.579 156.313 105.606C155.654 104.834 154.996 104.169 154.293 103.554C152.593 102.126 151.002 102.273 149.598 103.952C149.114 104.549 148.703 105.176 148.36 105.836L147.808 106.966L146.225 110.317C145.604 111.621 145.203 112.413 144.708 113.315C144.028 114.514 143.185 115.646 142.211 116.662C141.5 117.357 140.556 117.874 139.524 118.112C138.596 118.326 137.631 118.305 136.717 118.055L136.283 117.925C133.158 117.115 130.1 116.064 127.138 114.783L126.252 114.392C124.522 113.604 122.672 113.094 120.775 112.881L119.45 112.733L118.804 113.898L118.616 114.25C117.586 116.257 117.137 118.512 117.318 120.761L117.348 121.074L117.346 121.024C117.451 123.295 117.508 125.568 117.515 127.844L117.514 130.253C117.516 130.397 117.52 130.524 117.525 130.652L117.555 131.323C117.558 131.403 117.56 131.488 117.561 131.583L117.564 132.101C117.564 132.844 117.693 134.129 117.977 136.384L119.122 145.137L119.304 146.582C119.392 147.286 119.475 147.965 119.554 148.626L119.749 150.298L119.863 151.309C120.397 156.172 120.673 160.005 120.645 162.774L120.64 163.112C120.615 164.327 120.527 165.278 120.384 165.92L120.351 166.051L111.299 166.142L107.39 166.168L101.788 166.189L97.2925 166.186C94.9941 166.177 93.2026 166.158 92.0099 166.126L89.3033 166.031L83.821 165.87L83.7949 165.777C83.6637 165.28 83.5639 164.545 83.5114 163.609C83.3923 161.483 83.5188 158.486 83.861 154.779L83.9114 154.245C84.4396 148.749 85.2801 142.831 86.4306 135.774L87.1823 131.218L87.2068 131.063L87.206 130.963L87.2854 129.856L87.3259 129.422C87.3331 129.359 87.34 129.307 87.3469 129.262L87.3961 128.992L87.4076 128.917C87.4185 128.84 87.4278 128.759 87.4363 128.667L87.4774 128.053L87.5394 126.67C87.5565 126.249 87.5921 125.864 87.672 125.213L87.8291 123.967C87.9038 123.348 87.9399 122.954 87.9642 122.476C88.0783 121.321 88.0394 120.064 87.8417 118.827L87.8117 118.677C87.4972 117.364 86.7343 116.202 85.6543 115.391C84.5749 114.581 83.2462 114.173 81.8975 114.237C79.8632 114.301 77.8051 114.49 75.7656 114.801C72.1843 115.396 68.6774 116.241 65.2451 117.335C64.1454 117.641 62.9658 117.855 61.7684 117.962L61.2544 118.002C60.1263 118.116 59.0703 117.883 58.1648 117.343C57.2581 116.803 56.5499 115.985 56.1452 115.011L56.0697 114.85L55.7906 114.3C55.6299 113.973 55.4653 113.619 55.2565 113.153L54.3056 111.01C54.2263 110.834 54.1521 110.673 54.0764 110.512L53.6971 109.718L52.9631 108.208C52.5003 107.263 51.9852 106.224 51.3533 104.958C51.1149 104.496 50.8463 104.079 50.5395 103.69C48.7838 101.38 47.0334 101.126 44.8245 102.945L44.5044 103.219L44.2508 103.443C43.9979 103.669 43.741 103.905 43.4239 104.203L41.7226 105.813C41.4793 106.039 41.2734 106.228 41.0731 106.405L40.712 106.721C40.2155 107.149 39.6654 107.504 39.0757 107.779C38.8177 107.907 38.5783 107.933 38.3517 107.876C38.126 107.818 37.9273 107.681 37.7936 107.49C37.615 107.252 37.4764 107.04 37.3577 106.826L37.2174 106.557L37.1502 106.457C37.0062 106.243 36.9507 105.981 36.9953 105.726C37.0399 105.471 37.1813 105.243 37.3895 105.091C37.8126 104.765 38.2252 104.471 38.6429 104.199L39.1623 103.867L39.8878 103.369C40.4219 103.002 40.7587 102.759 41.0852 102.493L41.324 102.292L41.2437 102.357C42.027 101.772 42.5666 100.919 42.7584 99.96L42.7989 99.7195C42.9087 98.916 42.7691 98.0979 42.3991 97.3763L42.3327 97.2552C41.778 96.1962 41.0196 95.2572 40.101 94.4921L40.0124 94.4183L39.9158 94.3551C39.0447 93.7854 38.1397 93.2695 37.2059 92.8103L36.6422 92.5417C35.4353 92.0026 34.4037 91.184 33.6199 90.1512L33.5518 90.0615L33.4741 89.98C33.4371 89.9413 33.4126 89.8923 33.4037 89.8394C33.3948 89.7864 33.402 89.732 33.4244 89.6831C33.4466 89.6344 33.4831 89.5934 33.529 89.5654C33.5748 89.5375 33.6279 89.524 33.6816 89.5266L33.8097 89.5328L33.9375 89.5225C35.2482 89.4178 36.5576 89.7393 37.6709 90.4392L37.7951 90.5112L38.5032 90.8988C39.3215 91.3598 40.1582 91.8787 41.4955 92.7398L43.3896 93.9672L46.7775 96.2723L47.0203 96.433C47.5888 96.8265 48.2561 97.146 48.961 97.355C49.4711 97.5259 50.0856 97.5558 50.6746 97.4217C51.2645 97.2872 51.8056 96.9937 52.2396 96.5732C52.6734 96.153 52.9838 95.6213 53.1367 95.0365L53.1863 94.8157C53.2423 94.5199 53.2575 94.2185 53.2319 93.92L53.206 93.7032L53.3254 93.7565C53.6496 93.8881 53.9913 93.9756 54.3413 94.0158L54.5904 94.0444L54.8389 94.0107C56.1487 93.8327 57.1991 92.6659 57.6492 91.4594C58.0387 90.4125 58.2445 89.3081 58.258 88.1931L58.2622 87.8203L58.2615 86.742C58.2576 86.3014 58.2495 85.8005 58.2371 85.16L58.193 82.7605C58.1901 82.5229 58.1884 82.3076 58.1878 82.0991L58.1895 81.4212C58.1882 80.7696 58.283 80.1409 58.4708 79.5372C58.5328 79.3461 58.6698 79.1616 58.8538 79.034C59.038 78.9063 59.259 78.8425 59.4827 78.8526L59.6227 78.854C59.9041 78.8469 60.1811 78.9252 60.4171 79.0785L60.5308 79.1608C60.6763 79.2776 60.7968 79.4223 60.8852 79.5864L60.907 79.6332L60.9564 79.8127C61.0782 80.3051 61.1402 80.8105 61.1413 81.3179L61.135 81.5682L61.1444 81.4963C60.8919 83.7961 60.3824 86.0601 59.6254 88.2458L59.5893 88.3611L59.3661 89.1213L59.0709 90.111C58.973 90.4502 58.9049 90.7068 58.8334 91.005C58.683 91.6162 58.6662 92.2642 58.7872 92.8936C58.9079 93.5224 59.1634 94.1182 59.5361 94.6395C59.9087 95.1607 60.3898 95.5952 60.9461 95.9131C61.5024 96.231 62.121 96.4248 62.7593 96.4811L62.914 96.4888L63.5206 96.4875C64.3291 96.4754 65.1364 96.4219 65.9391 96.3272L66.4304 96.2612L66.9178 96.2143L68.521 96.0376L69.088 95.9852L69.1325 96.0655C69.1765 96.1532 69.2165 96.2494 69.248 96.3489C69.3265 96.5973 69.3495 96.86 69.3154 97.1183C69.0861 98.3688 68.5814 99.6536 67.8448 100.805C67.5751 101.256 67.2145 101.564 66.7853 101.735C66.3585 101.904 65.886 101.928 65.4429 101.802C64.0479 101.452 62.7259 101.081 61.4153 100.673C60.7111 100.451 59.9609 100.374 59.2194 100.452L58.9407 100.488C58.3863 100.576 57.851 100.748 57.3519 100.998L57.22 101.067L57.3467 101.013C56.8065 101.23 56.3183 101.559 55.9142 101.978C55.5098 102.397 55.1987 102.898 55.0015 103.445C54.804 103.996 54.7255 104.58 54.7707 105.161L54.7974 105.409C54.8543 105.82 54.973 106.22 55.1494 106.595L55.2024 106.699C55.6932 107.762 56.3273 108.754 57.0869 109.646L57.5733 110.192C57.8179 110.461 58.075 110.735 58.391 111.063L60.3339 113.058C60.5496 113.283 60.7294 113.475 60.9228 113.685C61.6293 114.454 62.5516 114.993 63.5693 115.232C64.5912 115.47 65.6582 115.395 66.6333 115.016L69.5685 113.824C70.3999 113.492 71.0188 113.262 71.6598 113.052C74.7893 112.027 78.0717 111.54 81.3647 111.614C84.4275 111.719 87.4941 112.165 90.4854 112.944C91.4503 113.154 92.3477 113.265 93.2485 113.294C94.3208 113.349 95.4166 113.015 96.3052 112.346C97.1929 111.679 97.8189 110.719 98.0716 109.635L98.1597 109.218C98.8495 105.733 98.4403 102.135 96.9919 98.9097L96.837 98.5762L96.8853 98.695C96.6336 98.0145 96.2147 97.4082 95.6674 96.9319C95.12 96.4557 94.4621 96.1248 93.7538 95.9692C93.0448 95.8137 92.3086 95.8388 91.6123 96.0422L91.3541 96.1265C90.8442 96.3108 90.3733 96.5894 89.9662 96.9477L89.8429 97.0626C88.5919 98.1888 87.4349 99.4143 86.383 100.727L86.3093 100.825L86.1873 100.983C86.1444 101.034 86.0994 101.082 86.0522 101.129L85.936 101.233L85.9079 100.991L85.8949 100.729C85.888 100.293 85.9548 99.8581 86.0925 99.4436L86.164 99.2502L86.3142 98.9688C86.4067 98.8026 86.5125 98.6238 86.6463 98.4068L87.4655 97.1058C87.5732 96.9316 87.6626 96.7823 87.7589 96.6164C88.3766 95.5459 88.9679 94.4667 89.5357 93.3741C89.8265 92.7795 89.9898 92.1852 90.04 91.5762C90.3018 88.8144 89.0117 87.2496 86.219 86.9596C85.6325 86.9028 85.0897 86.8802 84.3255 86.8719L83.3541 86.866C81.276 86.8209 79.1855 86.4684 77.1787 85.82C73.6023 84.6598 70.5911 82.2056 68.7314 78.9458L68.5432 78.6058C66.702 75.32 65.4612 71.7699 64.8605 68.0896L64.7612 67.4388C64.3097 64.7222 64.2195 62.0052 64.4856 59.3112C64.9112 55.0544 66.5189 50.9988 69.127 47.6046C73.7985 41.6964 80.1272 37.2757 87.3085 34.9145L87.9792 34.6841L89.8496 34.0819C90.005 34.0246 90.1145 34.002 90.2146 34.0005L90.2885 34.003ZM108.61 101.961C108.683 101.955 108.756 101.977 108.814 102.024L109.12 102.281C109.257 102.4 109.402 102.529 109.573 102.685L111.002 104.008C111.428 104.394 111.748 104.665 112.126 104.958L112.726 105.39C113.527 105.956 114.336 106.477 115.163 106.962L115.606 107.215C114.594 107.48 113.612 107.844 112.672 108.305L111.873 108.713C111.381 108.968 110.904 109.236 110.266 109.613L107.836 111.077C107.583 111.226 107.367 111.351 107.129 111.485L107.166 111.526C106.994 111.353 106.85 111.15 106.743 110.926C106.269 109.959 106.024 108.911 106.021 107.849C106.017 106.785 106.255 105.735 106.717 104.777C107.176 103.749 107.746 102.844 108.436 102.037C108.467 102.002 108.536 101.967 108.61 101.961ZM65.137 81.0337L65.12 80.6802L65.0364 80.5296C67.348 84.8359 71.2632 88.1062 75.9467 89.6256C78.3255 90.3941 80.8011 90.8115 83.2978 90.8655L84.5042 90.8747C85.0424 90.8835 85.4334 90.9022 85.8198 90.9396L85.969 90.9573L86.072 90.9722C86.0699 91.0512 86.0643 91.1322 86.0557 91.2231C86.0442 91.3612 86.0136 91.4722 85.9636 91.5748C85.4456 92.5701 84.8825 93.5978 84.2972 94.6124L84.0514 95.0215L83.6259 95.6954C83.0941 96.5311 82.8254 96.9807 82.5426 97.5479L82.4813 97.6831C82.0098 98.8358 81.8181 100.084 81.9218 101.324C82.0256 102.566 82.4219 103.764 83.0785 104.823L83.7167 105.852L84.9244 105.763C85.8472 105.696 86.7431 105.425 87.5477 104.969L87.8117 104.811C88.4179 104.427 88.9535 103.942 89.395 103.377L89.5047 103.228C90.2903 102.248 91.1431 101.323 92.0572 100.461L92.594 99.9644C92.6328 99.9256 92.6808 99.8972 92.7336 99.8818C92.7865 99.8664 92.8425 99.8644 92.8964 99.8763C92.9499 99.888 93.0001 99.9132 93.0418 99.9496C93.083 99.9854 93.1148 100.031 93.1338 100.083L93.206 100.253C94.4719 102.894 94.8122 105.885 94.1722 108.744C94.1368 108.895 94.0393 109.045 93.9013 109.149C93.761 109.254 93.5898 109.306 93.4151 109.297C92.7169 109.275 92.0593 109.194 91.4117 109.054C88.2174 108.22 84.8582 107.731 81.4775 107.616C77.7084 107.531 73.9747 108.084 70.4127 109.251L69.9316 109.414C69.2917 109.635 68.6434 109.883 67.806 110.221L65.4464 111.184L65.1749 111.292C64.9614 111.374 64.7152 111.392 64.4795 111.337C64.2459 111.282 64.0319 111.157 63.8682 110.979L63.3456 110.42C63.1635 110.229 62.9634 110.022 62.7153 109.767L61.6148 108.642C60.9339 107.942 60.5477 107.528 60.1172 107.035C59.6814 106.523 59.2983 105.948 58.9848 105.333L58.7742 104.904C58.7653 104.887 58.7601 104.87 58.7587 104.852C58.7573 104.833 58.7597 104.815 58.7659 104.798C58.7712 104.783 58.7808 104.768 58.7928 104.755C58.806 104.742 58.8217 104.731 58.8382 104.725L58.9628 104.674L59.0795 104.608C59.2498 104.512 59.4399 104.451 59.6387 104.43C59.8296 104.41 60.0288 104.43 60.2192 104.49C61.2617 104.814 62.3065 105.116 63.357 105.394L64.4094 105.666C65.6392 106.017 67.0161 105.947 68.2642 105.451C69.5133 104.954 70.5616 104.059 71.2482 102.906C72.2318 101.37 72.9288 99.5957 73.266 97.7374C73.3918 96.8032 73.317 95.9499 73.0618 95.1428C72.8066 94.3358 72.3773 93.5947 71.8043 92.9719C71.4167 92.5844 71.0284 92.3345 70.6013 92.1726C70.1739 92.0107 69.7172 91.9403 69.2608 91.9665L69.1076 91.975L68.8075 91.9951C68.5393 92.0153 68.2576 92.0422 67.8873 92.0822L66.5138 92.2347C66.357 92.2511 66.2185 92.2644 66.0802 92.2766L65.3705 92.3663C64.7698 92.434 64.1661 92.474 63.5614 92.4862L63.1113 92.4967C63.0476 92.491 62.986 92.4717 62.9306 92.4401C62.8751 92.4084 62.8272 92.3651 62.79 92.3131C62.7529 92.2612 62.7274 92.2018 62.7154 92.1392C62.7033 92.0761 62.705 92.0117 62.7202 91.9496L62.7797 91.7102C62.8206 91.5512 62.8656 91.3878 62.9236 91.1875L63.3763 89.668L63.428 89.4862L63.4051 89.5548C64.26 87.0865 64.8354 84.5299 65.1205 81.9329L65.1303 81.8067C65.1422 81.5489 65.1444 81.291 65.137 81.0337ZM135.313 79.3445L135.444 79.1752L135.438 79.1918C135.174 79.8206 135.009 80.492 134.954 81.1827C134.824 83.2902 135.146 85.3626 135.892 87.2975L136.144 88.0476L137.029 90.814C137.114 91.075 137.192 91.305 137.271 91.5303L137.411 91.9262L137.363 91.945C137.295 91.9649 137.225 91.9763 137.153 91.9784L136.619 91.9829C136.068 91.985 135.5 91.9786 134.709 91.9623L131.334 91.8871C131.149 91.8843 130.97 91.8821 130.786 91.8804C129.934 91.8741 129.099 92.0898 128.36 92.5063C127.623 92.9214 127.006 93.5237 126.572 94.2527C126.139 94.9813 125.903 95.8107 125.889 96.6582C125.876 97.5058 126.084 98.3421 126.493 99.084L126.776 99.5891C127.152 100.269 127.533 100.991 128.008 101.921L129.548 104.94L130.222 106.243L133.068 105.755L133.476 105.679L134.491 105.462L136.053 105.108C136.778 104.947 137.236 104.855 137.747 104.771L137.915 104.737C138.368 104.622 138.843 104.629 139.291 104.756L139.48 104.818C139.729 104.91 139.963 105.039 140.174 105.2L140.285 105.291L140.244 105.381C140.04 105.78 139.718 106.11 139.317 106.322L139.215 106.381L138.868 106.6C137.726 107.35 136.723 108.291 135.901 109.382L135.733 109.612L135.753 109.591C135.317 110.122 134.823 110.603 134.281 111.023L134.155 111.129C134.133 111.15 134.104 111.163 134.073 111.167C134.044 111.17 134.013 111.165 133.985 111.15L133.801 111.063L131.944 110.311C129.167 109.197 126.88 108.335 124.604 107.559L124.169 107.416C123.005 107.054 121.803 106.83 120.589 106.748L120.358 106.735L120.494 106.599L120.418 106.673C121.059 106.097 121.468 105.307 121.567 104.45L121.586 104.218C121.622 103.522 121.45 102.827 121.09 102.225L121.065 102.187L118.543 97.1216L118.194 96.403C118.046 96.0938 117.919 95.8101 117.742 95.3875L116.985 93.5659C116.97 93.5312 116.955 93.4961 116.94 93.4603C116.869 93.299 116.861 93.128 116.914 92.9699C116.967 92.8135 117.076 92.6825 117.22 92.6019L117.344 92.5332L117.456 92.4479C118.26 91.8375 119.105 91.2817 119.985 90.7842C124.136 88.6209 128.115 86.0072 131.799 83.0158C133.092 81.8801 134.263 80.6545 135.313 79.3445ZM155.01 78.9545C155.156 78.9812 155.296 79.029 155.426 79.0965L155.745 79.2798C155.902 79.3584 156.024 79.4917 156.089 79.6542C156.153 79.8165 156.156 79.9968 156.096 80.161C155.709 81.3656 155.202 82.443 154.563 83.4417L154.225 83.9335C153.698 84.6932 153.139 85.4599 152.234 86.6738L150.143 89.4797L149.659 90.1412L150.177 88.3998L150.992 85.5721C151.524 83.4087 152.364 81.4145 153.499 79.588C153.589 79.45 153.727 79.3073 153.889 79.1954C154.05 79.0838 154.233 79.0047 154.426 78.9633C154.618 78.922 154.817 78.919 155.01 78.9545ZM45.8611 77.7952L45.983 77.8072C46.6793 77.8544 47.3327 78.1601 47.815 78.6643C48.2974 79.1686 48.5738 79.835 48.5901 80.5326L48.5931 80.6601L48.7602 81.7611L49.0469 83.7065L49.1136 84.1461C49.3327 85.5752 49.5242 86.6531 49.7591 87.7214L49.773 87.7742L47.102 83.9374C46.6825 83.3303 46.3223 82.805 45.9346 82.2352C45.4901 81.5469 45.0914 80.7752 44.7698 79.9701C44.639 79.672 44.5909 79.4246 44.5996 79.1759C44.6066 78.9771 44.6497 78.7815 44.7265 78.5986L44.8416 78.3601C44.9291 78.1695 45.0753 78.0118 45.2586 77.9102C45.4421 77.8086 45.6532 77.7683 45.8611 77.7952Z" fill="white"></path>
</svg>