<svg width="200" height="200" viewBox="0 0 200 200" fill="none" xmlns="http://www.w3.org/2000/svg">
<path d="M123.535 35.7406C125.463 36.6448 124.83 39.5356 122.7 39.5513L121.075 39.569C114.074 39.6717 109.979 40.1092 106.4 41.3531C102.976 42.5437 100.618 44.4141 99.2637 47.2545C104.392 46.0525 110.272 46.4312 116.304 48.3512C128.72 52.3028 138.178 61.7045 138.052 71.5106C138.034 72.93 136.584 73.8792 135.276 73.3281C114.856 64.7255 100.179 66.3978 90.1595 74.2444C89.7177 74.5904 89.2949 74.9421 88.8907 75.2982C89.4257 76.1131 90.1663 77.3434 91.0309 78.8485L91.3949 79.4854C92.6301 81.6582 94.0787 84.3153 95.5252 87.0917L95.9589 87.9278L96.9123 89.7937C98.6141 93.161 100.214 96.5309 101.342 99.2785C104.984 94.4309 109.245 90.9628 114.198 89.403C118.811 87.9503 123.748 88.258 128.97 90.4764C127.965 86.2107 122.468 83.7759 114.416 83.4866C112.289 83.4102 111.737 80.5061 113.687 79.6549C123.101 75.5464 134.711 75.535 142.227 79.718C148.537 83.2297 151.217 89.0734 149.631 96.3406L149.596 96.4949L149.775 96.3773C164.293 87.082 180.731 99.4381 178.434 120.746L178.344 121.51C178.077 123.607 175.164 123.91 174.471 121.913C172.236 115.472 163.875 110.824 159.116 113.026C164.408 116.956 166.636 122.091 166.067 128.061C165.596 133 163.259 138.147 159.674 143.289C158.287 145.277 156.805 147.129 155.322 148.799C155.01 149.151 154.71 149.479 154.427 149.784L153.771 150.474L153.361 150.889L153.308 150.941C152.064 152.15 149.975 151.309 149.916 149.575C149.451 136.009 147.117 125.826 142.779 119.041C133.155 133.076 127.182 153.929 128.712 166.832C128.842 167.929 128.058 168.923 126.961 169.053C125.864 169.183 124.869 168.4 124.739 167.303C123.049 153.049 129.64 130.508 140.234 115.702C138.793 114.119 137.186 112.812 135.412 111.782L135.732 111.487C127.176 119.241 120.843 129.523 116.421 141.549C113.209 150.283 111.296 159.047 110.295 167.31C110.162 168.406 109.165 169.188 108.069 169.055C107.022 168.928 106.263 168.014 106.311 166.978L106.311 166.955L106.569 161.554C107.534 141.767 106.881 129.113 102.65 113.976C100.603 114.83 98.4852 115.792 96.2966 116.862C94.7234 117.631 92.9913 116.15 93.5066 114.477L93.6083 114.16C93.6649 113.989 93.7369 113.778 93.8242 113.53L93.8926 113.338C94.2049 112.464 94.5811 111.493 95.0226 110.45C96.0418 108.042 97.2409 105.633 98.6276 103.323C98.5731 103.225 98.5263 103.12 98.4881 103.009C97.0246 98.7736 94.1973 92.9359 90.5608 86.3139L89.8158 84.9695L88.4088 82.479C87.475 80.8427 86.5898 79.3206 85.9826 78.2906C85.8644 78.4342 85.7489 78.5774 85.6362 78.7206C85.2228 79.2455 84.8786 79.7287 84.6014 80.1567L84.4117 80.4577L84.3137 80.6253C83.9836 81.2332 83.3628 81.6275 82.6723 81.6677C81.5455 81.7333 80.4471 81.829 79.3772 81.9548C91.6684 106.012 95.4359 146.822 87.5775 167.772C87.1895 168.806 86.0367 169.33 85.0024 168.942C83.9682 168.554 83.4443 167.401 83.8323 166.367C91.4054 146.178 87.4839 105.515 75.2151 82.6248C57.9098 86.2335 49.2975 99.0343 50.0985 121.631C50.1503 123.092 48.6684 124.113 47.3217 123.545C41.7916 121.209 35.4754 106.312 35.6443 94.1289C35.8045 82.5748 40.9839 73.801 51.5398 69.2435C44.3871 65.8447 33.0868 73.0966 25.456 84.3102C24.266 86.059 21.5299 85.0042 21.8217 82.9091C25.7829 54.4688 55.4136 39.7524 72.5631 55.0708L72.6746 55.1729L72.6564 55C71.6587 44.9952 76.4043 37.5452 85.6481 33.6343L86.0153 33.4817C96.5701 29.1777 111.603 30.1457 123.535 35.7406ZM106.392 112.506L106.252 112.015C109.493 123.322 110.806 133.182 110.947 145.218C111.475 143.537 112.047 141.853 112.666 140.169C117.019 128.331 123.173 118.055 131.443 110.027C124.918 107.934 116.603 108.756 106.392 112.506ZM123.893 80.9139L123.711 80.9409L123.795 80.9675C129.852 82.9227 133.576 86.7869 133.129 92.6147C134.742 93.5844 136.381 94.7311 138.043 96.058C138.906 96.7471 139.048 98.0055 138.359 98.8688C137.669 99.732 136.411 99.8733 135.548 99.1842C133.718 97.7236 131.946 96.5157 130.229 95.548C130.073 95.4871 129.928 95.4063 129.796 95.31C124.496 92.4296 119.724 91.8564 115.4 93.2183C110.684 94.7035 106.53 98.4779 102.994 103.886C101.646 105.947 100.462 108.134 99.4412 110.347L99.0716 111.163L100.126 110.707C132.851 96.7417 150.656 108.355 153.57 143.485L153.656 144.595L153.885 144.319C154.571 143.478 155.248 142.6 155.905 141.689L156.393 141.001C159.619 136.373 161.691 131.81 162.085 127.681C162.674 121.504 159.479 116.62 151.148 113.161C150.127 112.738 149.644 111.568 150.067 110.547C150.491 109.527 151.661 109.044 152.681 109.467C153.63 109.861 154.526 110.276 155.371 110.713C160.602 106.258 169.157 108.858 174.416 114.431L174.545 114.57L174.528 114.353C173.91 107.335 170.766 101.705 166.066 98.9404L165.783 98.7781C159.502 95.2841 151.819 97.5368 145.49 105.912C143.955 107.944 140.853 105.817 142.195 103.652C148.251 93.8861 147.008 86.9567 140.282 83.2131C136.006 80.8333 129.941 80.0591 123.893 80.9139ZM87.9947 36.9996L87.5257 37.1856C77.2672 41.3688 73.6596 50.21 78.8882 63.2714C79.8215 65.6027 76.483 67.1778 75.2771 64.9751C69.1802 53.8378 58.4741 50.3378 47.4196 54.6236C38.8667 57.9396 31.7171 65.3356 28.0521 74.745L27.9536 75.0009L28.3471 74.6009C30.9832 71.9539 33.8755 69.593 36.7595 67.8325L37.2683 67.5282C44.3776 63.3626 51.0818 62.9985 56.2157 67.6021C59.8819 66.5773 64.0507 65.9615 68.7322 65.7951C69.8361 65.7558 70.7628 66.6189 70.802 67.7227C70.8412 68.8266 69.9782 69.7533 68.8743 69.7925C48.8186 70.5054 39.8454 79.6541 39.6439 94.1843C39.5657 99.8298 40.9094 105.97 43.1928 111.356C44.0545 113.388 45.013 115.19 45.93 116.612L46.0746 116.834L46.0967 116.132C46.9512 92.5084 59.1191 79.5651 80.984 77.7763L81.3956 77.7449L81.5024 77.5882C81.7273 77.2599 81.9937 76.892 82.303 76.4906L82.4937 76.2458C83.8811 74.484 85.6063 72.7296 87.6932 71.0952C98.2129 62.8566 113.183 60.7316 133.002 68.1214L133.668 68.3719L133.629 68.2236C131.857 61.6653 124.703 55.3426 115.504 52.297L115.091 52.1628C103.615 48.5104 93.267 51.1293 88.7977 60.0015C88.3008 60.9879 87.0983 61.3848 86.1118 60.8879C85.1253 60.3909 84.7285 59.1884 85.2254 58.2019C87.3695 53.9457 90.5738 50.8721 94.4675 48.9567C95.8171 43.2055 99.4573 39.532 105.087 37.5748C107.131 36.8642 109.252 36.3904 111.785 36.0806L112.072 36.0459L111.556 35.9328C103.261 34.1488 94.6095 34.4495 87.9947 36.9996Z" fill="white"></path>
</svg>