<svg width="200" height="200" viewBox="0 0 200 200" fill="none" xmlns="http://www.w3.org/2000/svg">
<path fill-rule="evenodd" clip-rule="evenodd" d="M80.4801 36.5898C73.7065 36.5898 68.2067 42.0896 68.2067 48.8632V106.766L54.96 93.5193C50.1602 88.7194 42.3998 88.7194 37.5999 93.5193C32.8 98.3192 32.8 106.08 37.5999 110.879L67.693 140.972C67.7643 141.079 67.8469 141.18 67.9408 141.274C68.0207 141.353 68.1009 141.429 68.1801 141.499V150.771C68.1801 151.876 69.0755 152.771 70.1801 152.771H152.42C153.525 152.771 154.42 151.876 154.42 150.771V48.8632C154.42 42.0896 148.92 36.5898 142.147 36.5898C135.373 36.5898 129.873 42.0896 129.873 48.8632V80.6195C127.701 78.6156 124.802 77.3904 121.6 77.3904C117.265 77.3904 113.486 79.6356 111.313 83.018C109.141 79.6356 105.361 77.3904 101.027 77.3904C97.8246 77.3904 94.9256 78.6156 92.7534 80.6195V48.8632C92.7534 42.0896 87.2536 36.5898 80.4801 36.5898ZM70.7959 138.419C70.8622 138.485 70.923 138.555 70.9781 138.628C71.0639 138.694 71.1729 138.774 71.331 138.889L71.3565 138.907C71.8739 139.284 72.1801 139.885 72.1801 140.525V148.771H150.42V48.8632C150.42 44.2988 146.711 40.5898 142.147 40.5898C137.582 40.5898 133.873 44.2988 133.873 48.8632V89.025C133.873 90.1296 132.978 91.025 131.873 91.025H131.82C130.765 91.025 129.892 90.206 129.824 89.1534C129.545 84.8077 125.979 81.3904 121.6 81.3904C117.221 81.3904 113.655 84.8077 113.376 89.1534C113.308 90.206 112.435 91.025 111.38 91.025H111.247C110.192 91.025 109.319 90.206 109.251 89.1534C108.971 84.8077 105.406 81.3904 101.027 81.3904C96.6473 81.3904 93.0822 84.8077 92.8025 89.1534C92.7348 90.206 91.8613 91.025 90.8066 91.025H90.7534C89.6488 91.025 88.7534 90.1296 88.7534 89.025V48.8632C88.7534 44.2988 85.0445 40.5898 80.4801 40.5898C75.9157 40.5898 72.2067 44.2988 72.2067 48.8632V111.594C72.2067 112.403 71.7194 113.133 70.9721 113.442C70.2247 113.752 69.3645 113.581 68.7925 113.009L52.1316 96.3477C48.8938 93.1099 43.6661 93.1099 40.4283 96.3477C37.1906 99.5855 37.1906 104.813 40.4283 108.051L70.7959 138.419Z" fill="white"></path>
<path d="M72.1799 159.551C71.0754 159.551 70.1799 160.446 70.1799 161.551C70.1799 162.655 71.0754 163.551 72.1799 163.551H154.42C155.524 163.551 156.42 162.655 156.42 161.551C156.42 160.446 155.524 159.551 154.42 159.551H72.1799Z" fill="white"></path>
</svg>