<svg width="200" height="200" viewBox="0 0 200 200" fill="none" xmlns="http://www.w3.org/2000/svg">
<path fill-rule="evenodd" clip-rule="evenodd" d="M135.714 77.0465V108.971C135.714 110.076 136.61 110.971 137.714 110.971C138.819 110.971 139.714 110.076 139.714 108.971V77.0465C144.009 76.1278 147.229 72.3113 147.229 67.7428C147.229 63.1743 144.009 59.3578 139.714 58.4391V51.4287C139.714 50.3241 138.819 49.4287 137.714 49.4287C136.61 49.4287 135.714 50.3241 135.714 51.4287V58.4391C131.42 59.3577 128.2 63.1742 128.2 67.7428C128.2 72.3114 131.42 76.1279 135.714 77.0465ZM137.741 73.257L137.714 73.2568L137.687 73.257C134.654 73.2425 132.2 70.7793 132.2 67.7428C132.2 64.6973 134.669 62.2285 137.714 62.2285C140.76 62.2285 143.229 64.6973 143.229 67.7428C143.229 70.7792 140.774 73.2424 137.741 73.257Z" fill="white"></path>
<path fill-rule="evenodd" clip-rule="evenodd" d="M98 108.971V99.3034C93.7057 98.3847 90.4856 94.5682 90.4856 89.9996C90.4856 85.431 93.7057 81.6145 98 80.6959V51.4287C98 50.3241 98.8954 49.4287 100 49.4287C101.105 49.4287 102 50.3241 102 51.4287V80.6959C106.294 81.6147 109.514 85.4311 109.514 89.9996C109.514 94.5681 106.294 98.3846 102 99.3033V108.971C102 110.075 101.105 110.971 100 110.971C98.8954 110.971 98 110.075 98 108.971ZM94.4856 89.9996C94.4856 86.9671 96.9336 84.5063 99.9612 84.4855C99.9741 84.4857 99.987 84.4859 100 84.4859C100.013 84.4859 100.026 84.4857 100.039 84.4855C103.066 84.5064 105.514 86.9672 105.514 89.9996C105.514 93.0359 103.06 95.499 100.027 95.5139L100 95.5137L99.9725 95.5139C96.9396 95.4991 94.4856 93.036 94.4856 89.9996Z" fill="white"></path>
<path fill-rule="evenodd" clip-rule="evenodd" d="M60.2856 87.6178C55.9914 86.699 52.7715 82.8826 52.7715 78.3141C52.7715 73.7456 55.9914 69.9291 60.2856 69.0104V51.4287C60.2856 50.3241 61.1811 49.4287 62.2856 49.4287C63.3902 49.4287 64.2856 50.3241 64.2856 51.4287V69.0103C68.58 69.929 71.8001 73.7455 71.8001 78.3141C71.8001 82.8827 68.58 86.6992 64.2856 87.6178V108.972C64.2856 110.076 63.3902 110.972 62.2856 110.972C61.1811 110.972 60.2856 110.076 60.2856 108.972V87.6178ZM62.254 72.7999C62.2645 72.8001 62.2751 72.8001 62.2856 72.8001C62.2962 72.8001 62.3068 72.8001 62.3174 72.7999C65.3483 72.8169 67.8001 75.2792 67.8001 78.3141C67.8001 81.3595 65.3312 83.8284 62.2858 83.8284C59.2403 83.8284 56.7715 81.3596 56.7715 78.3141C56.7715 75.2792 59.2231 72.817 62.254 72.7999Z" fill="white"></path>
<path fill-rule="evenodd" clip-rule="evenodd" d="M123.486 137.856C123.486 130.677 128.803 124.74 135.714 123.767V120.543C135.714 119.438 136.61 118.543 137.714 118.543C138.819 118.543 139.714 119.438 139.714 120.543V123.767C146.626 124.74 151.943 130.677 151.943 137.856C151.943 145.715 145.572 152.085 137.714 152.085C129.856 152.085 123.486 145.715 123.486 137.856ZM127.486 137.856C127.486 132.892 131.023 128.753 135.714 127.823V135.572C135.714 136.676 136.61 137.572 137.714 137.572C138.819 137.572 139.714 136.676 139.714 135.572V127.823C144.406 128.753 147.943 132.892 147.943 137.856C147.943 143.506 143.363 148.085 137.714 148.085C132.065 148.085 127.486 143.506 127.486 137.856Z" fill="white"></path>
<path fill-rule="evenodd" clip-rule="evenodd" d="M85.7715 137.856C85.7715 133.015 88.1892 128.739 91.883 126.169L90.4411 123.297C89.9455 122.31 90.3439 121.108 91.331 120.613C92.3181 120.117 93.5201 120.515 94.0158 121.502L95.4553 124.369C96.8824 123.888 98.4108 123.628 100 123.628C107.858 123.628 114.229 129.998 114.229 137.856C114.229 145.715 107.858 152.085 100 152.085C92.1418 152.085 85.7715 145.715 85.7715 137.856ZM89.7715 137.856C89.7715 134.582 91.3101 131.667 93.7037 129.795L97.184 136.726C97.6796 137.713 98.8817 138.111 99.8688 137.616C100.856 137.12 101.254 135.918 100.759 134.931L97.2758 127.995C98.1431 127.756 99.0567 127.628 100 127.628C105.649 127.628 110.229 132.207 110.229 137.856C110.229 143.506 105.649 148.085 100 148.085C94.351 148.085 89.7715 143.506 89.7715 137.856Z" fill="white"></path>
<path fill-rule="evenodd" clip-rule="evenodd" d="M76.5143 137.856C76.5143 141.44 75.1895 144.714 73.003 147.216L75.1148 149.665C75.8361 150.502 75.7426 151.765 74.906 152.486C74.0695 153.207 72.8066 153.114 72.0853 152.277L69.9755 149.83C67.7581 151.257 65.1186 152.085 62.2857 152.085C54.4275 152.085 48.0571 145.715 48.0571 137.856C48.0571 129.998 54.4275 123.628 62.2857 123.628C70.1439 123.628 76.5143 129.998 76.5143 137.856ZM52.0571 137.856C52.0571 132.207 56.6366 127.628 62.2857 127.628C67.9348 127.628 72.5143 132.207 72.5143 137.856C72.5143 140.227 71.7078 142.409 70.3544 144.144L65.2863 138.265C64.565 137.429 63.3021 137.335 62.4656 138.057C61.629 138.778 61.5355 140.041 62.2568 140.877L67.3272 146.758C65.8393 147.603 64.1188 148.085 62.2857 148.085C56.6366 148.085 52.0571 143.506 52.0571 137.856Z" fill="white"></path>
<path fill-rule="evenodd" clip-rule="evenodd" d="M50.8571 32C40.4426 32 32 40.4426 32 50.8571V149.143C32 159.557 40.4426 168 50.8571 168H149.143C159.557 168 168 159.557 168 149.143V50.8571C168 40.4426 159.557 32 149.143 32H50.8571ZM36 50.8571C36 42.6518 42.6518 36 50.8571 36H149.143C157.348 36 164 42.6518 164 50.8571V149.143C164 157.348 157.348 164 149.143 164H50.8571C42.6518 164 36 157.348 36 149.143V50.8571Z" fill="white"></path>
</svg>