<svg width="200" height="200" viewBox="0 0 200 200" fill="none" xmlns="http://www.w3.org/2000/svg">
<path fill-rule="evenodd" clip-rule="evenodd" d="M101.995 14C101.995 12.8954 101.1 12 99.9954 12C98.8908 12 97.9954 12.8954 97.9954 14V31.9363C89.0012 32.1969 80.445 34.2051 72.6539 37.6334C72.5002 37.6806 72.3521 37.7462 72.2133 37.8292C57.5535 44.4051 45.645 56.0245 38.6921 70.4807C38.6029 70.6204 38.5316 70.7704 38.4796 70.9269C35.7769 76.6526 33.8491 82.8164 32.8313 89.2826C32.7898 89.432 32.7654 89.5874 32.76 89.7464C32.2594 93.076 32 96.4845 32 99.9537C32 103.422 32.2594 106.83 32.7598 110.16C32.7649 110.323 32.7899 110.482 32.8329 110.635C33.8505 117.094 35.7761 123.25 38.4748 128.97C38.5289 129.137 38.6046 129.296 38.7005 129.444C49.6802 152.256 73.0022 168 100 168C127.024 168 150.364 152.226 161.331 129.378C161.395 129.272 161.448 129.16 161.491 129.044C164.22 123.276 166.164 117.062 167.182 110.542C167.203 110.448 167.218 110.353 167.226 110.256C167.736 106.896 168 103.456 168 99.9537C168 96.4496 167.735 93.0075 167.225 89.6461C167.217 89.5559 167.203 89.4671 167.184 89.3801C166.166 82.8482 164.219 76.624 161.483 70.8469C161.444 70.7454 161.397 70.6471 161.343 70.5529C154.388 56.05 142.449 44.3948 127.747 37.8111C127.627 37.7425 127.501 37.6866 127.37 37.644C119.57 34.2081 111.002 32.1958 101.995 31.936V14ZM36 99.9537C36 102.805 36.1862 105.613 36.5472 108.366L53.7864 111.253V88.659L36.5466 91.5455C36.186 94.2971 36 97.1036 36 99.9537ZM54.1411 84.544L37.2339 87.3748C38.2322 82.3586 39.8158 77.5537 41.9107 73.0343L58.7458 64.7836L54.1411 84.544ZM60.1923 59.6202L45.1005 67.0165C50.7869 57.5451 58.8516 49.6664 68.4676 44.2075L60.1923 59.6202ZM65.4328 58.3158L74.6646 41.1216C79.4394 39.0596 84.5149 37.5628 89.8071 36.7152L85.5604 54.1886L65.4328 58.3158ZM89.7486 53.8931L94.0535 36.1801C96.0115 35.9996 97.995 35.9073 100 35.9073C102.002 35.9073 103.982 35.9993 105.937 36.1792L110.242 53.8931H89.7486ZM114.43 54.1885L110.183 36.7136C115.474 37.5602 120.549 39.0558 125.323 41.1163L134.558 58.3158L114.43 54.1885ZM139.798 59.6201L131.519 44.1999C141.143 49.6602 149.214 57.5442 154.903 67.0229L139.798 59.6201ZM141.245 64.7836L158.092 73.0402C160.186 77.5584 161.769 82.3618 162.766 87.3764L145.849 84.5439L141.245 64.7836ZM146.204 88.659L163.454 91.5471C163.814 94.2982 164 97.1042 164 99.9537C164 102.805 163.814 105.612 163.453 108.365L146.204 111.253V88.659ZM145.849 115.368L162.765 112.536C161.767 117.55 160.184 122.354 158.09 126.872L141.245 135.106L145.849 115.368ZM139.798 140.265L154.906 132.88C149.213 142.367 141.134 150.256 131.501 155.718L139.798 140.265ZM134.555 141.574L125.307 158.798C120.545 160.852 115.483 162.344 110.206 163.19L114.432 145.721L134.555 141.574ZM110.245 146.019L105.961 163.726C103.998 163.907 102.01 164 100 164C97.9956 164 96.0127 163.908 94.0553 163.727L89.749 146.019H110.245ZM85.5602 145.722L89.8087 163.192C84.5219 162.346 79.4513 160.851 74.6807 158.793L65.4355 141.574L85.5602 145.722ZM60.1929 140.265L68.4854 155.71C58.8601 150.25 50.7882 142.366 45.0981 132.887L60.1929 140.265ZM58.7459 135.106L41.9128 126.878C39.8176 122.358 38.2335 117.553 37.2348 112.537L54.1415 115.368L58.7459 135.106ZM63.3071 137.051L85.0105 141.524L83.2635 118.36L58.3689 115.882L63.3071 137.051ZM89.0592 142.019H110.931L112.702 118.536H87.2881L89.0592 142.019ZM112.859 114.536H87.1316V85.3761H112.859V99.9422L112.859 99.9547V114.536ZM83.1316 114.327L57.7864 111.805V88.1072L83.1316 85.585V114.327ZM114.98 141.524L136.684 137.051L141.622 115.882L116.727 118.36L114.98 141.524ZM142.204 111.805L116.859 114.327V99.9421L116.859 99.9297V85.585L142.204 88.1072V111.805ZM85.0107 58.3845L63.3071 62.8349L58.3682 84.0295L83.2635 81.5521L85.0107 58.3845ZM89.0592 57.8931L87.2881 81.3761H112.702L110.931 57.8931H89.0592ZM114.98 58.3845L116.727 81.5521L141.622 84.0295L136.684 62.8349L114.98 58.3845Z" fill="white"></path>
</svg>