<svg width="24.000000" height="24.000000" viewBox="0 0 24 24" fill="none" xmlns="http://www.w3.org/2000/svg" xmlns:xlink="http://www.w3.org/1999/xlink">
	<desc>
			Created with Pixso.
	</desc>
	<defs>
		<clipPath id="clip14_3">
			<rect id="github " width="24.000000" height="24.000000" fill="white" fill-opacity="0"/>
		</clipPath>
	</defs>
	<g clip-path="url(#clip14_3)">
		<path id="path" d="M12 2C6.47 2 2 6.47 2 12C2 17.52 6.47 22 12 22C17.52 22 22 17.52 22 12C22 6.47 17.52 2 12 2ZM0 12C0 5.37 5.37 0 12 0C18.62 0 24 5.37 24 12C24 18.62 18.62 24 12 24C5.37 24 0 18.62 0 12Z" fill="#808080" fill-opacity="1.000000" fill-rule="evenodd"/>
		<path id="path" d="M9.59 22.73C9.49 22.61 9.49 21.49 9.59 19.39C8.55 19.43 7.9 19.36 7.62 19.18C7.21 18.91 6.8 18.08 6.44 17.49C6.08 16.91 5.27 16.82 4.94 16.68C4.62 16.55 4.53 16.02 5.84 16.42C7.15 16.83 7.21 17.93 7.62 18.18C8.04 18.44 9.02 18.33 9.47 18.12C9.91 17.92 9.88 17.15 9.96 16.85C10.06 16.56 9.71 16.5 9.7 16.5C9.26 16.5 6.97 16 6.34 13.78C5.71 11.56 6.52 10.11 6.96 9.49C7.24 9.07 7.22 8.19 6.88 6.83C8.11 6.67 9.06 7.06 9.73 8C9.73 8 10.61 7.47 12 7.47C13.38 7.47 13.87 7.9 14.25 8C14.63 8.09 14.93 6.36 17.28 6.83C16.79 7.79 16.38 9 16.69 9.49C17 9.98 18.23 11.55 17.48 13.78C16.98 15.27 15.99 16.17 14.51 16.5C14.35 16.55 14.26 16.64 14.26 16.76C14.26 16.94 14.49 16.96 14.82 17.8C15.04 18.36 15.05 19.97 14.87 22.62C14.39 22.74 14.02 22.82 13.76 22.86C13.29 22.94 12.78 22.98 12.28 22.99C11.78 23.01 11.6 23.01 10.91 22.94C10.45 22.9 10.01 22.83 9.59 22.73Z" fill="#808080" fill-opacity="1.000000" fill-rule="evenodd"/>
	</g>
</svg>
