<svg width="24.000000" height="24.000000" viewBox="0 0 24 24" fill="none" xmlns="http://www.w3.org/2000/svg" xmlns:xlink="http://www.w3.org/1999/xlink">
	<desc>
			Created with Pixso.
	</desc>
	<defs>
		<clipPath id="clip14_1">
			<rect id="Telegram" width="24.000000" height="24.000000" fill="white" fill-opacity="0"/>
		</clipPath>
	</defs>
	<g clip-path="url(#clip14_1)">
		<path id="path" d="M20.7 3.65C20.7 3.65 22.65 2.89 22.49 4.73C22.43 5.49 21.95 8.14 21.57 11.01L20.27 19.5C20.27 19.5 20.17 20.75 19.19 20.96C18.22 21.18 16.77 20.21 16.5 19.99C16.28 19.83 12.45 17.39 11.1 16.2C10.72 15.88 10.29 15.23 11.15 14.47L16.82 9.06C17.47 8.41 18.11 6.9 15.42 8.74L7.86 13.88C7.86 13.88 7 14.42 5.38 13.93L1.87 12.85C1.87 12.85 0.58 12.04 2.79 11.22C8.19 8.68 14.82 6.08 20.7 3.65Z" fill="#808080" fill-opacity="1.000000" fill-rule="nonzero"/>
	</g>
</svg>
